<svg width="44" height="40" viewBox="0 0 44 40" fill="none" xmlns="http://www.w3.org/2000/svg">
              <path d="M19.7447 1.05298C20.9421 0.396995 22.3913 0.396996 23.5886 1.05299L30.9833 5.10436L38.2391 8.86436C39.5825 9.56052 40.4181 10.9551 40.3983 12.468L40.3 20L40.3983 27.532C40.4181 29.0449 39.5825 30.4395 38.2391 31.1356L30.9833 34.8956L23.5886 38.947C22.3913 39.603 20.9421 39.603 19.7447 38.947L12.35 34.8956L5.09426 31.1356C3.75086 30.4395 2.91525 29.0449 2.935 27.532L3.03333 20L2.935 12.468C2.91525 10.9551 3.75086 9.56052 5.09426 8.86436L12.35 5.10436L19.7447 1.05298Z" fill="#FFBE83"/>
              <path d="M20.968 27.243C20.32 27.243 19.708 27.117 19.132 26.865C18.556 26.613 18.055 26.256 17.629 25.794C17.209 25.332 16.906 24.786 16.72 24.156L18.817 23.589C18.967 24.105 19.24 24.504 19.636 24.786C20.038 25.062 20.479 25.197 20.959 25.191C21.385 25.191 21.766 25.092 22.102 24.894C22.438 24.696 22.702 24.429 22.894 24.093C23.086 23.751 23.182 23.37 23.182 22.95C23.182 22.308 22.975 21.771 22.561 21.339C22.147 20.907 21.613 20.691 20.959 20.691C20.761 20.691 20.566 20.718 20.374 20.772C20.188 20.826 20.008 20.901 19.834 20.997L18.844 19.287L23.2 15.561L23.389 16.083H17.224V14.04H25.171V16.092L21.67 19.458L21.652 18.819C22.438 18.873 23.107 19.092 23.659 19.476C24.217 19.86 24.643 20.355 24.937 20.961C25.237 21.567 25.387 22.23 25.387 22.95C25.387 23.766 25.186 24.498 24.784 25.146C24.388 25.794 23.854 26.307 23.182 26.685C22.516 27.057 21.778 27.243 20.968 27.243Z" fill="white"/>
            </svg>