<svg width="44" height="40" viewBox="0 0 44 40" fill="none" xmlns="http://www.w3.org/2000/svg">
<path d="M19.7447 1.05298C20.9421 0.396995 22.3913 0.396996 23.5886 1.05299L30.9833 5.10436L38.2391 8.86436C39.5825 9.56052 40.4181 10.9551 40.3983 12.468L40.3 20L40.3983 27.532C40.4181 29.0449 39.5825 30.4395 38.2391 31.1356L30.9833 34.8956L23.5886 38.947C22.3913 39.603 20.9421 39.603 19.7447 38.947L12.35 34.8956L5.09426 31.1356C3.75086 30.4395 2.91525 29.0449 2.935 27.532L3.03333 20L2.935 12.468C2.91525 10.9551 3.75086 9.56052 5.09426 8.86436L12.35 5.10436L19.7447 1.05298Z" fill="#FFA654"/>
<path d="M16.9 25.982V24.092L22.444 19.151C22.876 18.767 23.176 18.404 23.344 18.062C23.512 17.72 23.596 17.39 23.596 17.072C23.596 16.64 23.503 16.256 23.317 15.92C23.131 15.578 22.873 15.308 22.543 15.11C22.219 14.912 21.844 14.813 21.418 14.813C20.968 14.813 20.569 14.918 20.221 15.128C19.879 15.332 19.612 15.605 19.42 15.947C19.228 16.289 19.138 16.658 19.15 17.054H16.918C16.918 16.19 17.11 15.437 17.494 14.795C17.884 14.153 18.418 13.655 19.096 13.301C19.78 12.947 20.569 12.77 21.463 12.77C22.291 12.77 23.035 12.956 23.695 13.328C24.355 13.694 24.874 14.204 25.252 14.858C25.63 15.506 25.819 16.253 25.819 17.099C25.819 17.717 25.735 18.236 25.567 18.656C25.399 19.076 25.147 19.463 24.811 19.817C24.481 20.171 24.07 20.564 23.578 20.996L19.645 24.479L19.447 23.939H25.819V25.982H16.9Z" fill="white"/>
</svg>