<svg width="18" height="16" viewBox="0 0 18 16" fill="none" xmlns="http://www.w3.org/2000/svg">
<path d="M8.18618 0.263246C8.48552 0.0992488 8.84782 0.099249 9.14715 0.263246L12.3933 2.04175L15.6244 3.71609C15.9602 3.89013 16.1691 4.23878 16.1642 4.61701L16.12 8L16.1642 11.383C16.1691 11.7612 15.9602 12.1099 15.6244 12.2839L12.3933 13.9583L9.14715 15.7368C8.84782 15.9008 8.48552 15.9008 8.18618 15.7368L4.94 13.9583L1.70898 12.2839C1.37313 12.1099 1.16423 11.7612 1.16917 11.383L1.21333 8L1.16917 4.61701C1.16423 4.23878 1.37313 3.89013 1.70898 3.71609L4.94 2.04175L8.18618 0.263246Z" fill="#45B26B"/>
<path d="M5.97217 8.41656L7.91661 10.361L11.8055 6.19434" stroke="white" stroke-width="1.5" stroke-linecap="round" stroke-linejoin="round"/>
</svg>
