<svg width="79" height="75" viewBox="0 0 79 75" fill="none" xmlns="http://www.w3.org/2000/svg">
<path d="M37.55 1.08882C38.7619 0.412108 40.2381 0.412109 41.45 1.08882L56.5245 9.50573L71.5827 17.6067C72.8899 18.3099 73.7001 19.679 73.6875 21.1632L73.549 37.5L73.6875 53.8368C73.7001 55.321 72.8899 56.6901 71.5828 57.3933L56.5245 65.4943L41.45 73.9112C40.2381 74.5879 38.7619 74.5879 37.55 73.9112L22.4755 65.4943L7.41725 57.3933C6.11015 56.6901 5.29987 55.321 5.31246 53.8368L5.451 37.5L5.31246 21.1632C5.29987 19.679 6.11015 18.3099 7.41725 17.6067L22.4755 9.50573L37.55 1.08882Z" fill="#F9F9F9"/>
<path d="M39 49.25C37.5562 49.2512 36.1345 48.8946 34.8622 48.2121C33.5898 47.5297 32.5064 46.5426 31.7087 45.3391L33.7912 43.9548C34.3615 44.8143 35.1355 45.5193 36.0443 46.007C36.9532 46.4947 37.9686 46.7499 39 46.7499C40.0314 46.7499 41.0468 46.4947 41.9556 46.007C42.8645 45.5193 43.6385 44.8143 44.2087 43.9548L46.2912 45.3391C45.4936 46.5426 44.4102 47.5297 43.1378 48.2121C41.8655 48.8946 40.4438 49.2512 39 49.25Z" fill="#426DF6"/>
<path d="M44 35.5C43.5055 35.5 43.0222 35.6466 42.6111 35.9213C42.2 36.196 41.8795 36.5865 41.6903 37.0433C41.5011 37.5001 41.4516 38.0028 41.548 38.4877C41.6445 38.9727 41.8826 39.4181 42.2322 39.7678C42.5819 40.1174 43.0273 40.3555 43.5123 40.452C43.9972 40.5484 44.4999 40.4989 44.9567 40.3097C45.4135 40.1205 45.804 39.8 46.0787 39.3889C46.3534 38.9778 46.5 38.4945 46.5 38C46.5032 37.6708 46.4408 37.3442 46.3163 37.0395C46.1918 36.7347 46.0078 36.4578 45.775 36.225C45.5422 35.9922 45.2653 35.8082 44.9605 35.6837C44.6558 35.5592 44.3292 35.4968 44 35.5Z" fill="#426DF6"/>
<path d="M34 35.5C33.5055 35.5 33.0222 35.6466 32.6111 35.9213C32.2 36.196 31.8795 36.5865 31.6903 37.0433C31.5011 37.5001 31.4516 38.0028 31.548 38.4877C31.6445 38.9727 31.8826 39.4181 32.2322 39.7678C32.5819 40.1174 33.0273 40.3555 33.5123 40.452C33.9972 40.5484 34.4999 40.4989 34.9567 40.3097C35.4135 40.1205 35.804 39.8 36.0787 39.3889C36.3534 38.9778 36.5 38.4945 36.5 38C36.5032 37.6708 36.4408 37.3442 36.3163 37.0395C36.1918 36.7347 36.0078 36.4578 35.775 36.225C35.5422 35.9922 35.2653 35.8082 34.9605 35.6837C34.6558 35.5592 34.3292 35.4968 34 35.5Z" fill="#426DF6"/>
<path d="M56.5 38V35.5H54V30.5C53.9985 29.1744 53.4712 27.9035 52.5339 26.9661C51.5965 26.0288 50.3256 25.5015 49 25.5H46.5V20.5H44V25.5H34V20.5H31.5V25.5H29C27.6744 25.5015 26.4035 26.0288 25.4661 26.9661C24.5288 27.9035 24.0015 29.1744 24 30.5V35.5H21.5V38H24V44.25H21.5V46.75H24V50.5C24.0015 51.8256 24.5288 53.0965 25.4661 54.0339C26.4035 54.9712 27.6744 55.4985 29 55.5H49C50.3256 55.4985 51.5965 54.9712 52.5339 54.0339C53.4712 53.0965 53.9985 51.8256 54 50.5V46.75H56.5V44.25H54V38H56.5ZM51.5 50.5C51.4992 51.1628 51.2356 51.7983 50.7669 52.2669C50.2983 52.7356 49.6628 52.9992 49 53H29C28.3372 52.9992 27.7017 52.7356 27.2331 52.2669C26.7644 51.7983 26.5008 51.1628 26.5 50.5V30.5C26.5008 29.8372 26.7644 29.2017 27.2331 28.7331C27.7017 28.2644 28.3372 28.0008 29 28H49C49.6628 28.0008 50.2983 28.2644 50.7669 28.7331C51.2356 29.2017 51.4992 29.8372 51.5 30.5V50.5Z" fill="#426DF6"/>
</svg>
