<svg width="40" height="40" viewBox="0 0 40 40" fill="none" xmlns="http://www.w3.org/2000/svg">
<path d="M13.75 26.25H11.25V23.75C11.2511 22.7558 11.6465 21.8026 12.3496 21.0996C13.0526 20.3965 14.0058 20.0011 15 20H22.5V22.5H15C14.6686 22.5004 14.3509 22.6322 14.1165 22.8665C13.8822 23.1009 13.7504 23.4186 13.75 23.75V26.25Z" fill="#FFA654"/>
<path d="M18.75 18.75C17.7611 18.75 16.7944 18.4568 15.9722 17.9074C15.1499 17.3579 14.509 16.5771 14.1306 15.6634C13.7522 14.7498 13.6531 13.7445 13.8461 12.7746C14.039 11.8046 14.5152 10.9137 15.2145 10.2145C15.9137 9.51521 16.8046 9.039 17.7746 8.84608C18.7445 8.65315 19.7498 8.75217 20.6634 9.1306C21.577 9.50904 22.3579 10.1499 22.9074 10.9722C23.4568 11.7944 23.75 12.7611 23.75 13.75C23.7485 15.0756 23.2213 16.3465 22.2839 17.2839C21.3465 18.2213 20.0756 18.7485 18.75 18.75ZM18.75 11.25C18.2555 11.25 17.7722 11.3966 17.3611 11.6713C16.95 11.946 16.6295 12.3365 16.4403 12.7933C16.2511 13.2501 16.2016 13.7528 16.298 14.2377C16.3945 14.7227 16.6326 15.1681 16.9822 15.5178C17.3319 15.8674 17.7773 16.1055 18.2623 16.202C18.7472 16.2984 19.2499 16.2489 19.7067 16.0597C20.1635 15.8705 20.554 15.5501 20.8287 15.1389C21.1034 14.7278 21.25 14.2445 21.25 13.75C21.2493 13.0872 20.9857 12.4517 20.517 11.983C20.0483 11.5143 19.4128 11.2507 18.75 11.25Z" fill="#FFA654"/>
<path d="M30 27.5C29.0111 27.5 28.0444 27.2068 27.2222 26.6574C26.3999 26.1079 25.759 25.327 25.3806 24.4134C25.0022 23.4998 24.9031 22.4945 25.0961 21.5246C25.289 20.5546 25.7652 19.6637 26.4645 18.9645C27.1637 18.2652 28.0546 17.789 29.0245 17.5961C29.9945 17.4031 30.9998 17.5022 31.9134 17.8806C32.827 18.259 33.6079 18.8999 34.1573 19.7222C34.7068 20.5444 35 21.5111 35 22.5C34.9985 23.8256 34.4712 25.0965 33.5339 26.0339C32.5965 26.9713 31.3256 27.4985 30 27.5ZM30 20C29.5055 20 29.0222 20.1466 28.6111 20.4213C28.2 20.696 27.8795 21.0865 27.6903 21.5433C27.5011 22.0001 27.4516 22.5028 27.548 22.9877C27.6445 23.4727 27.8826 23.9181 28.2322 24.2678C28.5819 24.6174 29.0273 24.8555 29.5123 24.952C29.9972 25.0484 30.4999 24.9989 30.9567 24.8097C31.4135 24.6205 31.804 24.3001 32.0787 23.8889C32.3534 23.4778 32.5 22.9945 32.5 22.5C32.4993 21.8372 32.2357 21.2017 31.767 20.733C31.2983 20.2643 30.6628 20.0007 30 20Z" fill="#FFA654"/>
<path d="M37.5 35H35V32.5C34.9996 32.1686 34.8678 31.8509 34.6335 31.6165C34.3991 31.3822 34.0814 31.2504 33.75 31.25H26.25C25.9186 31.2504 25.6009 31.3822 25.3665 31.6165C25.1322 31.8509 25.0004 32.1686 25 32.5V35H22.5V32.5C22.5011 31.5058 22.8965 30.5526 23.5996 29.8496C24.3026 29.1465 25.2558 28.7511 26.25 28.75H33.75C34.7442 28.7511 35.6974 29.1465 36.4004 29.8496C37.1035 30.5526 37.4989 31.5058 37.5 32.5V35Z" fill="#FFA654"/>
<path d="M17.5 34.6668L10.957 31.178C9.1562 30.22 7.65024 28.7897 6.60076 27.0407C5.55129 25.2916 4.9979 23.2898 5.00001 21.25V5H30V12.5H32.5V5C32.4992 4.33719 32.2356 3.70175 31.7669 3.23307C31.2983 2.7644 30.6628 2.50076 30 2.5H5.00001C4.3372 2.50076 3.70176 2.7644 3.23308 3.23307C2.76441 3.70175 2.50077 4.33719 2.50001 5V21.25C2.4973 23.7429 3.17355 26.1896 4.45616 28.3273C5.73877 30.4649 7.57932 32.213 9.78026 33.3838L17.5 37.5V34.6668Z" fill="#FFA654"/>
</svg>
