<svg width="40" height="40" viewBox="0 0 40 40" fill="none" xmlns="http://www.w3.org/2000/svg">
<path d="M20 31.25C18.5562 31.2512 17.1345 30.8946 15.8622 30.2121C14.5898 29.5297 13.5064 28.5426 12.7087 27.3391L14.7912 25.9548C15.3615 26.8143 16.1355 27.5193 17.0443 28.007C17.9532 28.4947 18.9686 28.7499 20 28.7499C21.0314 28.7499 22.0468 28.4947 22.9556 28.007C23.8645 27.5193 24.6385 26.8143 25.2087 25.9548L27.2912 27.3391C26.4936 28.5426 25.4102 29.5297 24.1378 30.2121C22.8655 30.8946 21.4438 31.2512 20 31.25Z" fill="#426DF6"/>
<path d="M25 17.5C24.5055 17.5 24.0222 17.6466 23.6111 17.9213C23.2 18.196 22.8795 18.5865 22.6903 19.0433C22.5011 19.5001 22.4516 20.0028 22.548 20.4877C22.6445 20.9727 22.8826 21.4181 23.2322 21.7678C23.5819 22.1174 24.0273 22.3555 24.5123 22.452C24.9972 22.5484 25.4999 22.4989 25.9567 22.3097C26.4135 22.1205 26.804 21.8 27.0787 21.3889C27.3534 20.9778 27.5 20.4945 27.5 20C27.5032 19.6708 27.4408 19.3442 27.3163 19.0395C27.1918 18.7347 27.0078 18.4578 26.775 18.225C26.5422 17.9922 26.2653 17.8082 25.9605 17.6837C25.6558 17.5592 25.3292 17.4968 25 17.5Z" fill="#426DF6"/>
<path d="M15 17.5C14.5055 17.5 14.0222 17.6466 13.6111 17.9213C13.2 18.196 12.8795 18.5865 12.6903 19.0433C12.5011 19.5001 12.4516 20.0028 12.548 20.4877C12.6445 20.9727 12.8826 21.4181 13.2322 21.7678C13.5819 22.1174 14.0273 22.3555 14.5123 22.452C14.9972 22.5484 15.4999 22.4989 15.9567 22.3097C16.4135 22.1205 16.804 21.8 17.0787 21.3889C17.3534 20.9778 17.5 20.4945 17.5 20C17.5032 19.6708 17.4408 19.3442 17.3163 19.0395C17.1918 18.7347 17.0078 18.4578 16.775 18.225C16.5422 17.9922 16.2653 17.8082 15.9605 17.6837C15.6558 17.5592 15.3292 17.4968 15 17.5Z" fill="#426DF6"/>
<path d="M37.5 20V17.5H35V12.5C34.9985 11.1744 34.4712 9.90347 33.5339 8.96611C32.5965 8.02875 31.3256 7.50149 30 7.5H27.5V2.5H25V7.5H15V2.5H12.5V7.5H10C8.67437 7.50149 7.40347 8.02875 6.46611 8.96611C5.52875 9.90347 5.00149 11.1744 5 12.5V17.5H2.5V20H5V26.25H2.5V28.75H5V32.5C5.00149 33.8256 5.52875 35.0965 6.46611 36.0339C7.40347 36.9712 8.67437 37.4985 10 37.5H30C31.3256 37.4985 32.5965 36.9712 33.5339 36.0339C34.4712 35.0965 34.9985 33.8256 35 32.5V28.75H37.5V26.25H35V20H37.5ZM32.5 32.5C32.4992 33.1628 32.2356 33.7983 31.7669 34.2669C31.2983 34.7356 30.6628 34.9992 30 35H10C9.33719 34.9992 8.70175 34.7356 8.23307 34.2669C7.7644 33.7983 7.50076 33.1628 7.5 32.5V12.5C7.50076 11.8372 7.7644 11.2017 8.23307 10.7331C8.70175 10.2644 9.33719 10.0008 10 10H30C30.6628 10.0008 31.2983 10.2644 31.7669 10.7331C32.2356 11.2017 32.4992 11.8372 32.5 12.5V32.5Z" fill="#426DF6"/>
</svg>
