<svg width="41" height="43" viewBox="0 0 41 43" fill="none" xmlns="http://www.w3.org/2000/svg">
<g clip-path="url(#clip0_286_3765)">
<path d="M32.9409 13.6874H38.2365V11.0833H32.9409C32.6746 10.3291 32.1888 9.6776 31.5497 9.21716C30.9105 8.75672 30.1488 8.50971 29.3683 8.50971C28.5877 8.50971 27.8261 8.75672 27.1869 9.21716C26.5477 9.6776 26.062 10.3291 25.7956 11.0833H16.6994V7.177H6.56423V11.0833H2.76355V13.6874H6.56423V17.5937H16.6994V13.6874H25.7956C25.9848 14.2335 26.2899 14.7295 26.6887 15.1394C27.0875 15.5493 27.5701 15.8628 28.1014 16.0572V25.5885C27.2299 25.8223 26.4349 26.2905 25.798 26.9451C25.1612 27.5996 24.7056 28.4168 24.4781 29.3124H2.76355V31.9166H24.4781C24.7698 33.0199 25.4067 33.994 26.2905 34.6884C27.1743 35.3828 28.2558 35.759 29.3683 35.759C30.4807 35.759 31.5623 35.3828 32.4461 34.6884C33.3298 33.994 33.9667 33.0199 34.2585 31.9166H38.2365V29.3124H34.2585C34.031 28.4168 33.5754 27.5996 32.9385 26.9451C32.3017 26.2905 31.5066 25.8223 30.6352 25.5885V16.0572C31.1665 15.8628 31.6491 15.5493 32.0479 15.1394C32.4467 14.7295 32.7517 14.2335 32.9409 13.6874ZM14.1656 14.9895H9.09801V9.78117H14.1656V14.9895ZM31.9021 30.6145C31.9021 31.1296 31.7535 31.633 31.475 32.0613C31.1966 32.4896 30.8009 32.8233 30.3379 33.0204C29.8749 33.2175 29.3655 33.2691 28.874 33.1686C28.3825 33.0681 27.931 32.8201 27.5766 32.4559C27.2223 32.0917 26.9809 31.6277 26.8832 31.1226C26.7854 30.6174 26.8356 30.0938 27.0274 29.6179C27.2191 29.1421 27.5439 28.7354 27.9606 28.4492C28.3773 28.1631 28.8671 28.0103 29.3683 28.0103C30.0403 28.0103 30.6848 28.2847 31.1599 28.7731C31.6351 29.2615 31.9021 29.9238 31.9021 30.6145Z" fill="#9B89E7"/>
</g>
<defs>
<clipPath id="clip0_286_3765">
<rect width="40.5405" height="41.6667" fill="white" transform="translate(0.229736 0.666626)"/>
</clipPath>
</defs>
</svg>
