<svg width="40" height="40" viewBox="0 0 40 40" fill="none" xmlns="http://www.w3.org/2000/svg">
<path d="M30 21.25H27.5V23.75H30V21.25Z" fill="#61D3E0"/>
<path d="M35 10H5V6.25H32.5V3.75H5C4.33696 3.75 3.70107 4.01339 3.23223 4.48223C2.76339 4.95107 2.5 5.58696 2.5 6.25V32.5C2.5 33.163 2.76339 33.7989 3.23223 34.2678C3.70107 34.7366 4.33696 35 5 35H35C35.663 35 36.2989 34.7366 36.7678 34.2678C37.2366 33.7989 37.5 33.163 37.5 32.5V12.5C37.5 11.837 37.2366 11.2011 36.7678 10.7322C36.2989 10.2634 35.663 10 35 10ZM5 32.5V12.5H35V16.25H25C24.337 16.25 23.7011 16.5134 23.2322 16.9822C22.7634 17.4511 22.5 18.087 22.5 18.75V26.25C22.5 26.913 22.7634 27.5489 23.2322 28.0178C23.7011 28.4866 24.337 28.75 25 28.75H35V32.5H5ZM35 18.75V26.25H25V18.75H35Z" fill="#61D3E0"/>
</svg>
