<svg width="602" height="291" viewBox="0 0 602 291" fill="none" xmlns="http://www.w3.org/2000/svg">
<path d="M27.372 258.27C26.37 258.27 25.485 258.063 24.717 257.649C23.949 257.235 23.346 256.656 22.908 255.912C22.476 255.162 22.26 254.283 22.26 253.275V245.049L23.88 245.04V253.14C23.88 253.752 23.982 254.286 24.186 254.742C24.396 255.192 24.672 255.567 25.014 255.867C25.356 256.167 25.731 256.392 26.139 256.542C26.553 256.686 26.964 256.758 27.372 256.758C27.786 256.758 28.2 256.683 28.614 256.533C29.028 256.383 29.403 256.161 29.739 255.867C30.081 255.567 30.354 255.189 30.558 254.733C30.762 254.277 30.864 253.746 30.864 253.14V245.04H32.484V253.275C32.484 254.277 32.265 255.153 31.827 255.903C31.395 256.653 30.795 257.235 30.027 257.649C29.259 258.063 28.374 258.27 27.372 258.27ZM41.9467 258V253.131C41.9467 252.669 41.9047 252.225 41.8207 251.799C41.7427 251.373 41.6017 250.992 41.3977 250.656C41.1997 250.314 40.9297 250.044 40.5877 249.846C40.2517 249.648 39.8257 249.549 39.3097 249.549C38.9077 249.549 38.5417 249.618 38.2117 249.756C37.8877 249.888 37.6087 250.092 37.3747 250.368C37.1407 250.644 36.9577 250.992 36.8257 251.412C36.6997 251.826 36.6367 252.315 36.6367 252.879L35.5837 252.555C35.5837 251.613 35.7517 250.806 36.0877 250.134C36.4297 249.456 36.9067 248.937 37.5187 248.577C38.1367 248.211 38.8627 248.028 39.6967 248.028C40.3267 248.028 40.8637 248.127 41.3077 248.325C41.7517 248.523 42.1207 248.787 42.4147 249.117C42.7087 249.441 42.9397 249.807 43.1077 250.215C43.2757 250.617 43.3927 251.028 43.4587 251.448C43.5307 251.862 43.5667 252.255 43.5667 252.627V258H41.9467ZM35.0167 258V248.28H36.4567V250.881H36.6367V258H35.0167ZM46.1082 246.561V244.905H47.7102V246.561H46.1082ZM46.1082 258V248.28H47.7102V258H46.1082ZM55.8592 258C55.2832 258.114 54.7132 258.159 54.1492 258.135C53.5912 258.117 53.0932 258.006 52.6552 257.802C52.2172 257.592 51.8842 257.268 51.6562 256.83C51.4642 256.446 51.3592 256.059 51.3412 255.669C51.3292 255.273 51.3232 254.826 51.3232 254.328V245.58H52.9252V254.256C52.9252 254.652 52.9282 254.991 52.9342 255.273C52.9462 255.555 53.0092 255.798 53.1232 256.002C53.3392 256.386 53.6812 256.611 54.1492 256.677C54.6232 256.743 55.1932 256.725 55.8592 256.623V258ZM49.3522 249.603V248.28H55.8592V249.603H49.3522ZM60.6172 258.27C59.8912 258.27 59.2822 258.138 58.7902 257.874C58.3042 257.604 57.9352 257.25 57.6832 256.812C57.4372 256.374 57.3142 255.894 57.3142 255.372C57.3142 254.862 57.4102 254.421 57.6022 254.049C57.8002 253.671 58.0762 253.359 58.4302 253.113C58.7842 252.861 59.2072 252.663 59.6992 252.519C60.1612 252.393 60.6772 252.285 61.2472 252.195C61.8232 252.099 62.4052 252.012 62.9932 251.934C63.5812 251.856 64.1302 251.781 64.6402 251.709L64.0642 252.042C64.0822 251.178 63.9082 250.539 63.5422 250.125C63.1822 249.711 62.5582 249.504 61.6702 249.504C61.0822 249.504 60.5662 249.639 60.1222 249.909C59.6842 250.173 59.3752 250.605 59.1952 251.205L57.6742 250.746C57.9082 249.894 58.3612 249.225 59.0332 248.739C59.7052 248.253 60.5902 248.01 61.6882 248.01C62.5702 248.01 63.3262 248.169 63.9562 248.487C64.5922 248.799 65.0482 249.273 65.3242 249.909C65.4622 250.209 65.5492 250.536 65.5852 250.89C65.6212 251.238 65.6392 251.604 65.6392 251.988V258H64.2172V255.669L64.5502 255.885C64.1842 256.671 63.6712 257.265 63.0112 257.667C62.3572 258.069 61.5592 258.27 60.6172 258.27ZM60.8602 256.929C61.4362 256.929 61.9342 256.827 62.3542 256.623C62.7802 256.413 63.1222 256.14 63.3802 255.804C63.6382 255.462 63.8062 255.09 63.8842 254.688C63.9742 254.388 64.0222 254.055 64.0282 253.689C64.0402 253.317 64.0462 253.032 64.0462 252.834L64.6042 253.077C64.0822 253.149 63.5692 253.218 63.0652 253.284C62.5612 253.35 62.0842 253.422 61.6342 253.5C61.1842 253.572 60.7792 253.659 60.4192 253.761C60.1552 253.845 59.9062 253.953 59.6722 254.085C59.4442 254.217 59.2582 254.388 59.1142 254.598C58.9762 254.802 58.9072 255.057 58.9072 255.363C58.9072 255.627 58.9732 255.879 59.1052 256.119C59.2432 256.359 59.4532 256.554 59.7352 256.704C60.0232 256.854 60.3982 256.929 60.8602 256.929ZM72.4648 258.27C71.5528 258.27 70.7848 258.045 70.1608 257.595C69.5368 257.139 69.0628 256.524 68.7388 255.75C68.4208 254.97 68.2618 254.097 68.2618 253.131C68.2618 252.153 68.4208 251.277 68.7388 250.503C69.0628 249.729 69.5368 249.12 70.1608 248.676C70.7908 248.232 71.5618 248.01 72.4738 248.01C73.3738 248.01 74.1478 248.235 74.7958 248.685C75.4498 249.129 75.9508 249.738 76.2988 250.512C76.6468 251.286 76.8208 252.159 76.8208 253.131C76.8208 254.103 76.6468 254.976 76.2988 255.75C75.9508 256.524 75.4498 257.139 74.7958 257.595C74.1478 258.045 73.3708 258.27 72.4648 258.27ZM67.9918 262.32V248.28H69.4228V255.435H69.6028V262.32H67.9918ZM72.2668 256.803C72.9088 256.803 73.4398 256.641 73.8598 256.317C74.2798 255.993 74.5948 255.555 74.8048 255.003C75.0148 254.445 75.1198 253.821 75.1198 253.131C75.1198 252.447 75.0148 251.829 74.8048 251.277C74.6008 250.725 74.2828 250.287 73.8508 249.963C73.4248 249.639 72.8818 249.477 72.2218 249.477C71.5918 249.477 71.0698 249.633 70.6558 249.945C70.2418 250.251 69.9328 250.68 69.7288 251.232C69.5248 251.778 69.4228 252.411 69.4228 253.131C69.4228 253.839 69.5218 254.472 69.7198 255.03C69.9238 255.582 70.2358 256.017 70.6558 256.335C71.0758 256.647 71.6128 256.803 72.2668 256.803ZM82.2605 252.987V251.664H87.6605V252.987H82.2605ZM92.5658 258L97.0208 251.439L92.6828 245.04H94.6358L97.9928 250.089L101.341 245.04H103.303L98.9648 251.439L103.411 258H101.458L97.9928 252.798L94.5278 258H92.5658ZM108.555 258.252C107.931 258.252 107.394 258.153 106.944 257.955C106.5 257.757 106.131 257.493 105.837 257.163C105.543 256.833 105.312 256.467 105.144 256.065C104.976 255.663 104.856 255.252 104.784 254.832C104.718 254.412 104.685 254.019 104.685 253.653V248.28H106.305V253.149C106.305 253.605 106.347 254.046 106.431 254.472C106.515 254.898 106.656 255.282 106.854 255.624C107.058 255.966 107.328 256.236 107.664 256.434C108.006 256.632 108.432 256.731 108.942 256.731C109.344 256.731 109.71 256.662 110.04 256.524C110.37 256.386 110.652 256.182 110.886 255.912C111.12 255.636 111.3 255.288 111.426 254.868C111.552 254.448 111.615 253.959 111.615 253.401L112.668 253.725C112.668 254.661 112.497 255.468 112.155 256.146C111.819 256.824 111.342 257.346 110.724 257.712C110.112 258.072 109.389 258.252 108.555 258.252ZM111.795 258V255.399H111.615V248.28H113.226V258H111.795ZM126.313 258V253.131C126.313 252.669 126.271 252.225 126.187 251.799C126.109 251.373 125.968 250.992 125.764 250.656C125.566 250.314 125.296 250.044 124.954 249.846C124.618 249.648 124.192 249.549 123.676 249.549C123.274 249.549 122.908 249.618 122.578 249.756C122.254 249.888 121.975 250.092 121.741 250.368C121.507 250.644 121.324 250.992 121.192 251.412C121.066 251.826 121.003 252.315 121.003 252.879L119.95 252.555C119.95 251.613 120.118 250.806 120.454 250.134C120.796 249.456 121.273 248.937 121.885 248.577C122.503 248.211 123.229 248.028 124.063 248.028C124.693 248.028 125.23 248.127 125.674 248.325C126.118 248.523 126.487 248.787 126.781 249.117C127.075 249.441 127.306 249.807 127.474 250.215C127.642 250.617 127.759 251.028 127.825 251.448C127.897 251.862 127.933 252.255 127.933 252.627V258H126.313ZM119.383 258V245.04H120.823V252.195H121.003V258H119.383ZM139.007 246.66H140.294C140.372 247.206 140.351 247.674 140.231 248.064C140.117 248.454 139.886 248.763 139.538 248.991C139.232 249.183 138.884 249.285 138.494 249.297C138.11 249.309 137.735 249.291 137.369 249.243V248.28C137.501 248.274 137.633 248.271 137.765 248.271C137.897 248.271 138.029 248.256 138.161 248.226C138.587 248.142 138.839 247.947 138.917 247.641C138.995 247.329 139.025 247.002 139.007 246.66ZM133.985 258.252C133.361 258.252 132.824 258.153 132.374 257.955C131.93 257.757 131.561 257.493 131.267 257.163C130.973 256.833 130.742 256.467 130.574 256.065C130.406 255.663 130.286 255.252 130.214 254.832C130.148 254.412 130.115 254.019 130.115 253.653V248.28H131.735V253.149C131.735 253.605 131.777 254.046 131.861 254.472C131.945 254.898 132.086 255.282 132.284 255.624C132.488 255.966 132.758 256.236 133.094 256.434C133.436 256.632 133.862 256.731 134.372 256.731C134.774 256.731 135.14 256.662 135.47 256.524C135.8 256.386 136.082 256.182 136.316 255.912C136.55 255.636 136.73 255.288 136.856 254.868C136.982 254.448 137.045 253.959 137.045 253.401L138.098 253.725C138.098 254.661 137.927 255.468 137.585 256.146C137.249 256.824 136.772 257.346 136.154 257.712C135.542 258.072 134.819 258.252 133.985 258.252ZM137.225 258V255.399H137.045V248.28H138.656V258H137.225ZM148.685 246.66H149.972C150.05 247.206 150.032 247.68 149.918 248.082C149.81 248.478 149.573 248.787 149.207 249.009C148.895 249.183 148.508 249.276 148.046 249.288C147.59 249.3 147.17 249.186 146.786 248.946V248.208C147.074 248.286 147.317 248.331 147.515 248.343C147.719 248.349 147.908 248.31 148.082 248.226C148.4 248.076 148.586 247.86 148.64 247.578C148.694 247.29 148.709 246.984 148.685 246.66ZM145.994 246.795H144.689L145.868 243.825H147.173L145.994 246.795ZM145.337 258.27C144.371 258.27 143.537 258.051 142.835 257.613C142.139 257.175 141.602 256.569 141.224 255.795C140.846 255.021 140.657 254.133 140.657 253.131C140.657 252.111 140.849 251.217 141.233 250.449C141.617 249.681 142.16 249.084 142.862 248.658C143.564 248.226 144.389 248.01 145.337 248.01C146.309 248.01 147.146 248.229 147.848 248.667C148.55 249.099 149.087 249.702 149.459 250.476C149.837 251.244 150.026 252.129 150.026 253.131C150.026 254.145 149.837 255.039 149.459 255.813C149.081 256.581 148.541 257.184 147.839 257.622C147.137 258.054 146.303 258.27 145.337 258.27ZM145.337 256.749C146.345 256.749 147.095 256.413 147.587 255.741C148.079 255.069 148.325 254.199 148.325 253.131C148.325 252.033 148.076 251.16 147.578 250.512C147.08 249.858 146.333 249.531 145.337 249.531C144.659 249.531 144.101 249.684 143.663 249.99C143.225 250.296 142.898 250.719 142.682 251.259C142.466 251.799 142.358 252.423 142.358 253.131C142.358 254.223 142.61 255.099 143.114 255.759C143.618 256.419 144.359 256.749 145.337 256.749ZM159.179 258V253.131C159.179 252.669 159.137 252.225 159.053 251.799C158.975 251.373 158.834 250.992 158.63 250.656C158.432 250.314 158.162 250.044 157.82 249.846C157.484 249.648 157.058 249.549 156.542 249.549C156.14 249.549 155.774 249.618 155.444 249.756C155.12 249.888 154.841 250.092 154.607 250.368C154.373 250.644 154.19 250.992 154.058 251.412C153.932 251.826 153.869 252.315 153.869 252.879L152.816 252.555C152.816 251.613 152.984 250.806 153.32 250.134C153.662 249.456 154.139 248.937 154.751 248.577C155.369 248.211 156.095 248.028 156.929 248.028C157.559 248.028 158.096 248.127 158.54 248.325C158.984 248.523 159.353 248.787 159.647 249.117C159.941 249.441 160.172 249.807 160.34 250.215C160.508 250.617 160.625 251.028 160.691 251.448C160.763 251.862 160.799 252.255 160.799 252.627V258H159.179ZM152.249 258V248.28H153.689V250.881H153.869V258H152.249ZM167.093 262.59C166.583 262.59 166.085 262.512 165.599 262.356C165.113 262.2 164.666 261.963 164.258 261.645C163.856 261.333 163.52 260.937 163.25 260.457L164.717 259.683C164.957 260.157 165.296 260.502 165.734 260.718C166.178 260.934 166.634 261.042 167.102 261.042C167.72 261.042 168.233 260.928 168.641 260.7C169.049 260.478 169.349 260.145 169.541 259.701C169.739 259.257 169.835 258.705 169.829 258.045V255.39H170.018V248.28H171.44V258.063C171.44 258.327 171.431 258.582 171.413 258.828C171.401 259.074 171.371 259.317 171.323 259.557C171.197 260.247 170.948 260.814 170.576 261.258C170.204 261.708 169.724 262.041 169.136 262.257C168.548 262.479 167.867 262.59 167.093 262.59ZM166.976 258.27C166.07 258.27 165.293 258.045 164.645 257.595C163.997 257.139 163.496 256.524 163.142 255.75C162.794 254.976 162.62 254.103 162.62 253.131C162.62 252.159 162.794 251.286 163.142 250.512C163.496 249.738 163.997 249.129 164.645 248.685C165.293 248.235 166.067 248.01 166.967 248.01C167.885 248.01 168.656 248.232 169.28 248.676C169.904 249.12 170.375 249.729 170.693 250.503C171.017 251.277 171.179 252.153 171.179 253.131C171.179 254.097 171.017 254.97 170.693 255.75C170.375 256.524 169.904 257.139 169.28 257.595C168.656 258.045 167.888 258.27 166.976 258.27ZM167.174 256.803C167.828 256.803 168.365 256.647 168.785 256.335C169.205 256.017 169.514 255.582 169.712 255.03C169.916 254.472 170.018 253.839 170.018 253.131C170.018 252.411 169.916 251.778 169.712 251.232C169.514 250.68 169.208 250.251 168.794 249.945C168.38 249.633 167.855 249.477 167.219 249.477C166.559 249.477 166.013 249.639 165.581 249.963C165.155 250.287 164.837 250.725 164.627 251.277C164.423 251.829 164.321 252.447 164.321 253.131C164.321 253.821 164.426 254.445 164.636 255.003C164.846 255.555 165.161 255.993 165.581 256.317C166.007 256.641 166.538 256.803 167.174 256.803ZM177.591 258L177.6 245.04H179.22V252.96L183.297 248.28H185.376L181.083 253.14L185.88 258H183.639L179.22 253.32V258H177.591ZM187.972 246.795L190.168 244.23H191.59L193.786 246.795H192.211L190.879 245.22L189.547 246.795H187.972ZM194.758 244.905H193.453L194.632 241.935H195.937L194.758 244.905ZM190.834 258.27C189.88 258.27 189.046 258.06 188.332 257.64C187.624 257.214 187.072 256.623 186.676 255.867C186.28 255.105 186.082 254.217 186.082 253.203C186.082 252.141 186.277 251.223 186.667 250.449C187.057 249.669 187.6 249.069 188.296 248.649C188.998 248.223 189.82 248.01 190.762 248.01C191.74 248.01 192.571 248.235 193.255 248.685C193.945 249.135 194.461 249.777 194.803 250.611C195.151 251.445 195.301 252.438 195.253 253.59H193.633V253.014C193.615 251.82 193.372 250.929 192.904 250.341C192.436 249.747 191.74 249.45 190.816 249.45C189.826 249.45 189.073 249.768 188.557 250.404C188.041 251.04 187.783 251.952 187.783 253.14C187.783 254.286 188.041 255.174 188.557 255.804C189.073 256.434 189.808 256.749 190.762 256.749C191.404 256.749 191.962 256.602 192.436 256.308C192.91 256.014 193.282 255.591 193.552 255.039L195.091 255.57C194.713 256.428 194.143 257.094 193.381 257.568C192.625 258.036 191.776 258.27 190.834 258.27ZM187.243 253.59V252.303H194.425V253.59H187.243ZM202.705 258C202.129 258.114 201.559 258.159 200.995 258.135C200.437 258.117 199.939 258.006 199.501 257.802C199.063 257.592 198.73 257.268 198.502 256.83C198.31 256.446 198.205 256.059 198.187 255.669C198.175 255.273 198.169 254.826 198.169 254.328V245.58H199.771V254.256C199.771 254.652 199.774 254.991 199.78 255.273C199.792 255.555 199.855 255.798 199.969 256.002C200.185 256.386 200.527 256.611 200.995 256.677C201.469 256.743 202.039 256.725 202.705 256.623V258ZM196.198 249.603V248.28H202.705V249.603H196.198ZM215.246 258V253.131C215.246 252.669 215.204 252.225 215.12 251.799C215.042 251.373 214.901 250.992 214.697 250.656C214.499 250.314 214.229 250.044 213.887 249.846C213.551 249.648 213.125 249.549 212.609 249.549C212.207 249.549 211.841 249.618 211.511 249.756C211.187 249.888 210.908 250.092 210.674 250.368C210.44 250.644 210.257 250.992 210.125 251.412C209.999 251.826 209.936 252.315 209.936 252.879L208.883 252.555C208.883 251.613 209.051 250.806 209.387 250.134C209.729 249.456 210.206 248.937 210.818 248.577C211.436 248.211 212.162 248.028 212.996 248.028C213.626 248.028 214.163 248.127 214.607 248.325C215.051 248.523 215.42 248.787 215.714 249.117C216.008 249.441 216.239 249.807 216.407 250.215C216.575 250.617 216.692 251.028 216.758 251.448C216.83 251.862 216.866 252.255 216.866 252.627V258H215.246ZM208.316 258V248.28H209.756V250.881H209.936V258H208.316ZM220.472 246.795L222.668 244.23H224.09L226.286 246.795H224.711L223.379 245.22L222.047 246.795H220.472ZM227.258 244.905H225.953L227.132 241.935H228.437L227.258 244.905ZM223.28 258.27C222.314 258.27 221.48 258.051 220.778 257.613C220.082 257.175 219.545 256.569 219.167 255.795C218.789 255.021 218.6 254.133 218.6 253.131C218.6 252.111 218.792 251.217 219.176 250.449C219.56 249.681 220.103 249.084 220.805 248.658C221.507 248.226 222.332 248.01 223.28 248.01C224.252 248.01 225.089 248.229 225.791 248.667C226.493 249.099 227.03 249.702 227.402 250.476C227.78 251.244 227.969 252.129 227.969 253.131C227.969 254.145 227.78 255.039 227.402 255.813C227.024 256.581 226.484 257.184 225.782 257.622C225.08 258.054 224.246 258.27 223.28 258.27ZM223.28 256.749C224.288 256.749 225.038 256.413 225.53 255.741C226.022 255.069 226.268 254.199 226.268 253.131C226.268 252.033 226.019 251.16 225.521 250.512C225.023 249.858 224.276 249.531 223.28 249.531C222.602 249.531 222.044 249.684 221.606 249.99C221.168 250.296 220.841 250.719 220.625 251.259C220.409 251.799 220.301 252.423 220.301 253.131C220.301 254.223 220.553 255.099 221.057 255.759C221.561 256.419 222.302 256.749 223.28 256.749ZM230.152 246.561V244.905H231.754V246.561H230.152ZM230.152 258V248.28H231.754V258H230.152ZM242.196 258.27C241.212 258.27 240.375 258.051 239.685 257.613C239.001 257.169 238.479 256.56 238.119 255.786C237.759 255.012 237.573 254.13 237.561 253.14C237.573 252.126 237.762 251.235 238.128 250.467C238.5 249.693 239.031 249.09 239.721 248.658C240.411 248.226 241.242 248.01 242.214 248.01C243.24 248.01 244.122 248.262 244.86 248.766C245.604 249.27 246.102 249.96 246.354 250.836L244.77 251.313C244.566 250.749 244.233 250.311 243.771 249.999C243.315 249.687 242.79 249.531 242.196 249.531C241.53 249.531 240.981 249.687 240.549 249.999C240.117 250.305 239.796 250.731 239.586 251.277C239.376 251.817 239.268 252.438 239.262 253.14C239.274 254.22 239.523 255.093 240.009 255.759C240.501 256.419 241.23 256.749 242.196 256.749C242.832 256.749 243.36 256.605 243.78 256.317C244.2 256.023 244.518 255.6 244.734 255.048L246.354 255.471C246.018 256.377 245.493 257.07 244.779 257.55C244.065 258.03 243.204 258.27 242.196 258.27ZM255.133 258V253.131C255.133 252.669 255.091 252.225 255.007 251.799C254.929 251.373 254.788 250.992 254.584 250.656C254.386 250.314 254.116 250.044 253.774 249.846C253.438 249.648 253.012 249.549 252.496 249.549C252.094 249.549 251.728 249.618 251.398 249.756C251.074 249.888 250.795 250.092 250.561 250.368C250.327 250.644 250.144 250.992 250.012 251.412C249.886 251.826 249.823 252.315 249.823 252.879L248.77 252.555C248.77 251.613 248.938 250.806 249.274 250.134C249.616 249.456 250.093 248.937 250.705 248.577C251.323 248.211 252.049 248.028 252.883 248.028C253.513 248.028 254.05 248.127 254.494 248.325C254.938 248.523 255.307 248.787 255.601 249.117C255.895 249.441 256.126 249.807 256.294 250.215C256.462 250.617 256.579 251.028 256.645 251.448C256.717 251.862 256.753 252.255 256.753 252.627V258H255.133ZM248.203 258V245.04H249.643V252.195H249.823V258H248.203ZM262.805 258.252C262.181 258.252 261.644 258.153 261.194 257.955C260.75 257.757 260.381 257.493 260.087 257.163C259.793 256.833 259.562 256.467 259.394 256.065C259.226 255.663 259.106 255.252 259.034 254.832C258.968 254.412 258.935 254.019 258.935 253.653V248.28H260.555V253.149C260.555 253.605 260.597 254.046 260.681 254.472C260.765 254.898 260.906 255.282 261.104 255.624C261.308 255.966 261.578 256.236 261.914 256.434C262.256 256.632 262.682 256.731 263.192 256.731C263.594 256.731 263.96 256.662 264.29 256.524C264.62 256.386 264.902 256.182 265.136 255.912C265.37 255.636 265.55 255.288 265.676 254.868C265.802 254.448 265.865 253.959 265.865 253.401L266.918 253.725C266.918 254.661 266.747 255.468 266.405 256.146C266.069 256.824 265.592 257.346 264.974 257.712C264.362 258.072 263.639 258.252 262.805 258.252ZM266.045 258V255.399H265.865V248.28H267.476V258H266.045ZM271.367 262.32L273.248 257.208L273.275 258.72L269.027 248.28H270.71L274.04 256.677H273.464L276.587 248.28H278.216L272.924 262.32H271.367ZM280.939 246.795L283.135 244.23H284.557L286.753 246.795H285.178L283.846 245.22L282.514 246.795H280.939ZM283.936 258.27C282.982 258.27 282.148 258.06 281.434 257.64C280.726 257.214 280.174 256.623 279.778 255.867C279.382 255.105 279.184 254.217 279.184 253.203C279.184 252.141 279.379 251.223 279.769 250.449C280.159 249.669 280.702 249.069 281.398 248.649C282.1 248.223 282.922 248.01 283.864 248.01C284.842 248.01 285.673 248.235 286.357 248.685C287.047 249.135 287.563 249.777 287.905 250.611C288.253 251.445 288.403 252.438 288.355 253.59H286.735V253.014C286.717 251.82 286.474 250.929 286.006 250.341C285.538 249.747 284.842 249.45 283.918 249.45C282.928 249.45 282.175 249.768 281.659 250.404C281.143 251.04 280.885 251.952 280.885 253.14C280.885 254.286 281.143 255.174 281.659 255.804C282.175 256.434 282.91 256.749 283.864 256.749C284.506 256.749 285.064 256.602 285.538 256.308C286.012 256.014 286.384 255.591 286.654 255.039L288.193 255.57C287.815 256.428 287.245 257.094 286.483 257.568C285.727 258.036 284.878 258.27 283.936 258.27ZM280.345 253.59V252.303H287.527V253.59H280.345ZM297.038 258V253.131C297.038 252.669 296.996 252.225 296.912 251.799C296.834 251.373 296.693 250.992 296.489 250.656C296.291 250.314 296.021 250.044 295.679 249.846C295.343 249.648 294.917 249.549 294.401 249.549C293.999 249.549 293.633 249.618 293.303 249.756C292.979 249.888 292.7 250.092 292.466 250.368C292.232 250.644 292.049 250.992 291.917 251.412C291.791 251.826 291.728 252.315 291.728 252.879L290.675 252.555C290.675 251.613 290.843 250.806 291.179 250.134C291.521 249.456 291.998 248.937 292.61 248.577C293.228 248.211 293.954 248.028 294.788 248.028C295.418 248.028 295.955 248.127 296.399 248.325C296.843 248.523 297.212 248.787 297.506 249.117C297.8 249.441 298.031 249.807 298.199 250.215C298.367 250.617 298.484 251.028 298.55 251.448C298.622 251.862 298.658 252.255 298.658 252.627V258H297.038ZM290.108 258V248.28H291.548V250.881H291.728V258H290.108ZM311.566 258V253.131C311.566 252.669 311.524 252.225 311.44 251.799C311.362 251.373 311.221 250.992 311.017 250.656C310.819 250.314 310.549 250.044 310.207 249.846C309.871 249.648 309.445 249.549 308.929 249.549C308.527 249.549 308.161 249.618 307.831 249.756C307.507 249.888 307.228 250.092 306.994 250.368C306.76 250.644 306.577 250.992 306.445 251.412C306.319 251.826 306.256 252.315 306.256 252.879L305.203 252.555C305.203 251.613 305.371 250.806 305.707 250.134C306.049 249.456 306.526 248.937 307.138 248.577C307.756 248.211 308.482 248.028 309.316 248.028C309.946 248.028 310.483 248.127 310.927 248.325C311.371 248.523 311.74 248.787 312.034 249.117C312.328 249.441 312.559 249.807 312.727 250.215C312.895 250.617 313.012 251.028 313.078 251.448C313.15 251.862 313.186 252.255 313.186 252.627V258H311.566ZM304.636 258V248.28H306.076V250.881H306.256V258H304.636ZM319.48 262.59C318.97 262.59 318.472 262.512 317.986 262.356C317.5 262.2 317.053 261.963 316.645 261.645C316.243 261.333 315.907 260.937 315.637 260.457L317.104 259.683C317.344 260.157 317.683 260.502 318.121 260.718C318.565 260.934 319.021 261.042 319.489 261.042C320.107 261.042 320.62 260.928 321.028 260.7C321.436 260.478 321.736 260.145 321.928 259.701C322.126 259.257 322.222 258.705 322.216 258.045V255.39H322.405V248.28H323.827V258.063C323.827 258.327 323.818 258.582 323.8 258.828C323.788 259.074 323.758 259.317 323.71 259.557C323.584 260.247 323.335 260.814 322.963 261.258C322.591 261.708 322.111 262.041 321.523 262.257C320.935 262.479 320.254 262.59 319.48 262.59ZM319.363 258.27C318.457 258.27 317.68 258.045 317.032 257.595C316.384 257.139 315.883 256.524 315.529 255.75C315.181 254.976 315.007 254.103 315.007 253.131C315.007 252.159 315.181 251.286 315.529 250.512C315.883 249.738 316.384 249.129 317.032 248.685C317.68 248.235 318.454 248.01 319.354 248.01C320.272 248.01 321.043 248.232 321.667 248.676C322.291 249.12 322.762 249.729 323.08 250.503C323.404 251.277 323.566 252.153 323.566 253.131C323.566 254.097 323.404 254.97 323.08 255.75C322.762 256.524 322.291 257.139 321.667 257.595C321.043 258.045 320.275 258.27 319.363 258.27ZM319.561 256.803C320.215 256.803 320.752 256.647 321.172 256.335C321.592 256.017 321.901 255.582 322.099 255.03C322.303 254.472 322.405 253.839 322.405 253.131C322.405 252.411 322.303 251.778 322.099 251.232C321.901 250.68 321.595 250.251 321.181 249.945C320.767 249.633 320.242 249.477 319.606 249.477C318.946 249.477 318.4 249.639 317.968 249.963C317.542 250.287 317.224 250.725 317.014 251.277C316.81 251.829 316.708 252.447 316.708 253.131C316.708 253.821 316.813 254.445 317.023 255.003C317.233 255.555 317.548 255.993 317.968 256.317C318.394 256.641 318.925 256.803 319.561 256.803ZM333.283 258V253.131C333.283 252.669 333.241 252.225 333.157 251.799C333.079 251.373 332.938 250.992 332.734 250.656C332.536 250.314 332.266 250.044 331.924 249.846C331.588 249.648 331.162 249.549 330.646 249.549C330.244 249.549 329.878 249.618 329.548 249.756C329.224 249.888 328.945 250.092 328.711 250.368C328.477 250.644 328.294 250.992 328.162 251.412C328.036 251.826 327.973 252.315 327.973 252.879L326.92 252.555C326.92 251.613 327.088 250.806 327.424 250.134C327.766 249.456 328.243 248.937 328.855 248.577C329.473 248.211 330.199 248.028 331.033 248.028C331.663 248.028 332.2 248.127 332.644 248.325C333.088 248.523 333.457 248.787 333.751 249.117C334.045 249.441 334.276 249.807 334.444 250.215C334.612 250.617 334.729 251.028 334.795 251.448C334.867 251.862 334.903 252.255 334.903 252.627V258H333.283ZM326.353 258V245.04H327.793V252.195H327.973V258H326.353ZM337.444 246.561V244.905H339.046V246.561H337.444ZM337.444 258V248.28H339.046V258H337.444ZM344.936 261.465V259.809H346.7V261.465H344.936ZM342.983 246.795L345.179 244.23H346.601L348.797 246.795H347.222L345.89 245.22L344.558 246.795H342.983ZM345.98 258.27C345.026 258.27 344.192 258.06 343.478 257.64C342.77 257.214 342.218 256.623 341.822 255.867C341.426 255.105 341.228 254.217 341.228 253.203C341.228 252.141 341.423 251.223 341.813 250.449C342.203 249.669 342.746 249.069 343.442 248.649C344.144 248.223 344.966 248.01 345.908 248.01C346.886 248.01 347.717 248.235 348.401 248.685C349.091 249.135 349.607 249.777 349.949 250.611C350.297 251.445 350.447 252.438 350.399 253.59H348.779V253.014C348.761 251.82 348.518 250.929 348.05 250.341C347.582 249.747 346.886 249.45 345.962 249.45C344.972 249.45 344.219 249.768 343.703 250.404C343.187 251.04 342.929 251.952 342.929 253.14C342.929 254.286 343.187 255.174 343.703 255.804C344.219 256.434 344.954 256.749 345.908 256.749C346.55 256.749 347.108 256.602 347.582 256.308C348.056 256.014 348.428 255.591 348.698 255.039L350.237 255.57C349.859 256.428 349.289 257.094 348.527 257.568C347.771 258.036 346.922 258.27 345.98 258.27ZM342.389 253.59V252.303H349.571V253.59H342.389ZM356.625 258.27C355.713 258.27 354.945 258.045 354.321 257.595C353.697 257.139 353.223 256.524 352.899 255.75C352.581 254.97 352.422 254.097 352.422 253.131C352.422 252.153 352.581 251.277 352.899 250.503C353.223 249.729 353.697 249.12 354.321 248.676C354.951 248.232 355.722 248.01 356.634 248.01C357.534 248.01 358.308 248.235 358.956 248.685C359.61 249.129 360.111 249.738 360.459 250.512C360.807 251.286 360.981 252.159 360.981 253.131C360.981 254.103 360.807 254.976 360.459 255.75C360.111 256.524 359.61 257.139 358.956 257.595C358.308 258.045 357.531 258.27 356.625 258.27ZM352.152 262.32V248.28H353.583V255.435H353.763V262.32H352.152ZM356.427 256.803C357.069 256.803 357.6 256.641 358.02 256.317C358.44 255.993 358.755 255.555 358.965 255.003C359.175 254.445 359.28 253.821 359.28 253.131C359.28 252.447 359.175 251.829 358.965 251.277C358.761 250.725 358.443 250.287 358.011 249.963C357.585 249.639 357.042 249.477 356.382 249.477C355.752 249.477 355.23 249.633 354.816 249.945C354.402 250.251 354.093 250.68 353.889 251.232C353.685 251.778 353.583 252.411 353.583 253.131C353.583 253.839 353.682 254.472 353.88 255.03C354.084 255.582 354.396 256.017 354.816 256.335C355.236 256.647 355.773 256.803 356.427 256.803ZM373.522 258V253.131C373.522 252.669 373.48 252.225 373.396 251.799C373.318 251.373 373.177 250.992 372.973 250.656C372.775 250.314 372.505 250.044 372.163 249.846C371.827 249.648 371.401 249.549 370.885 249.549C370.483 249.549 370.117 249.618 369.787 249.756C369.463 249.888 369.184 250.092 368.95 250.368C368.716 250.644 368.533 250.992 368.401 251.412C368.275 251.826 368.212 252.315 368.212 252.879L367.159 252.555C367.159 251.613 367.327 250.806 367.663 250.134C368.005 249.456 368.482 248.937 369.094 248.577C369.712 248.211 370.438 248.028 371.272 248.028C371.902 248.028 372.439 248.127 372.883 248.325C373.327 248.523 373.696 248.787 373.99 249.117C374.284 249.441 374.515 249.807 374.683 250.215C374.851 250.617 374.968 251.028 375.034 251.448C375.106 251.862 375.142 252.255 375.142 252.627V258H373.522ZM366.592 258V245.04H368.032V252.195H368.212V258H366.592ZM377.683 246.561V244.905H379.285V246.561H377.683ZM377.683 258V248.28H379.285V258H377.683ZM385.175 261.465V259.809H386.939V261.465H385.175ZM383.222 246.795L385.418 244.23H386.84L389.036 246.795H387.461L386.129 245.22L384.797 246.795H383.222ZM386.219 258.27C385.265 258.27 384.431 258.06 383.717 257.64C383.009 257.214 382.457 256.623 382.061 255.867C381.665 255.105 381.467 254.217 381.467 253.203C381.467 252.141 381.662 251.223 382.052 250.449C382.442 249.669 382.985 249.069 383.681 248.649C384.383 248.223 385.205 248.01 386.147 248.01C387.125 248.01 387.956 248.235 388.64 248.685C389.33 249.135 389.846 249.777 390.188 250.611C390.536 251.445 390.686 252.438 390.638 253.59H389.018V253.014C389 251.82 388.757 250.929 388.289 250.341C387.821 249.747 387.125 249.45 386.201 249.45C385.211 249.45 384.458 249.768 383.942 250.404C383.426 251.04 383.168 251.952 383.168 253.14C383.168 254.286 383.426 255.174 383.942 255.804C384.458 256.434 385.193 256.749 386.147 256.749C386.789 256.749 387.347 256.602 387.821 256.308C388.295 256.014 388.667 255.591 388.937 255.039L390.476 255.57C390.098 256.428 389.528 257.094 388.766 257.568C388.01 258.036 387.161 258.27 386.219 258.27ZM382.628 253.59V252.303H389.81V253.59H382.628ZM399.321 258V253.131C399.321 252.669 399.279 252.225 399.195 251.799C399.117 251.373 398.976 250.992 398.772 250.656C398.574 250.314 398.304 250.044 397.962 249.846C397.626 249.648 397.2 249.549 396.684 249.549C396.282 249.549 395.916 249.618 395.586 249.756C395.262 249.888 394.983 250.092 394.749 250.368C394.515 250.644 394.332 250.992 394.2 251.412C394.074 251.826 394.011 252.315 394.011 252.879L392.958 252.555C392.958 251.613 393.126 250.806 393.462 250.134C393.804 249.456 394.281 248.937 394.893 248.577C395.511 248.211 396.237 248.028 397.071 248.028C397.701 248.028 398.238 248.127 398.682 248.325C399.126 248.523 399.495 248.787 399.789 249.117C400.083 249.441 400.314 249.807 400.482 250.215C400.65 250.617 400.767 251.028 400.833 251.448C400.905 251.862 400.941 252.255 400.941 252.627V258H399.321ZM392.391 258V248.28H393.831V250.881H394.011V258H392.391ZM411.832 247.38V246.066H416.44V247.38H411.832ZM410.743 258.27C409.837 258.27 409.06 258.045 408.412 257.595C407.764 257.139 407.263 256.524 406.909 255.75C406.561 254.976 406.387 254.103 406.387 253.131C406.387 252.159 406.561 251.286 406.909 250.512C407.263 249.738 407.764 249.129 408.412 248.685C409.06 248.235 409.834 248.01 410.734 248.01C411.652 248.01 412.423 248.232 413.047 248.676C413.671 249.12 414.142 249.729 414.46 250.503C414.784 251.277 414.946 252.153 414.946 253.131C414.946 254.097 414.784 254.97 414.46 255.75C414.142 256.524 413.671 257.139 413.047 257.595C412.423 258.045 411.655 258.27 410.743 258.27ZM410.941 256.803C411.595 256.803 412.132 256.647 412.552 256.335C412.972 256.017 413.281 255.582 413.479 255.03C413.683 254.472 413.785 253.839 413.785 253.131C413.785 252.411 413.683 251.778 413.479 251.232C413.281 250.68 412.975 250.251 412.561 249.945C412.147 249.633 411.622 249.477 410.986 249.477C410.326 249.477 409.78 249.639 409.348 249.963C408.922 250.287 408.604 250.725 408.394 251.277C408.19 251.829 408.088 252.447 408.088 253.131C408.088 253.821 408.193 254.445 408.403 255.003C408.613 255.555 408.928 255.993 409.348 256.317C409.774 256.641 410.305 256.803 410.941 256.803ZM413.785 258V250.845H413.605V245.04H415.216V258H413.785ZM420.657 261.465V259.809H422.421V261.465H420.657ZM420.522 258.27C419.796 258.27 419.187 258.138 418.695 257.874C418.209 257.604 417.84 257.25 417.588 256.812C417.342 256.374 417.219 255.894 417.219 255.372C417.219 254.862 417.315 254.421 417.507 254.049C417.705 253.671 417.981 253.359 418.335 253.113C418.689 252.861 419.112 252.663 419.604 252.519C420.066 252.393 420.582 252.285 421.152 252.195C421.728 252.099 422.31 252.012 422.898 251.934C423.486 251.856 424.035 251.781 424.545 251.709L423.969 252.042C423.987 251.178 423.813 250.539 423.447 250.125C423.087 249.711 422.463 249.504 421.575 249.504C420.987 249.504 420.471 249.639 420.027 249.909C419.589 250.173 419.28 250.605 419.1 251.205L417.579 250.746C417.813 249.894 418.266 249.225 418.938 248.739C419.61 248.253 420.495 248.01 421.593 248.01C422.475 248.01 423.231 248.169 423.861 248.487C424.497 248.799 424.953 249.273 425.229 249.909C425.367 250.209 425.454 250.536 425.49 250.89C425.526 251.238 425.544 251.604 425.544 251.988V258H424.122V255.669L424.455 255.885C424.089 256.671 423.576 257.265 422.916 257.667C422.262 258.069 421.464 258.27 420.522 258.27ZM420.765 256.929C421.341 256.929 421.839 256.827 422.259 256.623C422.685 256.413 423.027 256.14 423.285 255.804C423.543 255.462 423.711 255.09 423.789 254.688C423.879 254.388 423.927 254.055 423.933 253.689C423.945 253.317 423.951 253.032 423.951 252.834L424.509 253.077C423.987 253.149 423.474 253.218 422.97 253.284C422.466 253.35 421.989 253.422 421.539 253.5C421.089 253.572 420.684 253.659 420.324 253.761C420.06 253.845 419.811 253.953 419.577 254.085C419.349 254.217 419.163 254.388 419.019 254.598C418.881 254.802 418.812 255.057 418.812 255.363C418.812 255.627 418.878 255.879 419.01 256.119C419.148 256.359 419.358 256.554 419.64 256.704C419.928 256.854 420.303 256.929 420.765 256.929ZM428.086 246.561V244.905H429.688V246.561H428.086ZM428.086 258V248.28H429.688V258H428.086ZM24.888 286L21.36 276.28H22.98L25.707 283.957L28.425 276.28H30.054L26.526 286H24.888ZM34.4436 274.795L33.2646 271.825H34.5696L35.7486 274.795H34.4436ZM33.9216 286.27C33.1956 286.27 32.5866 286.138 32.0946 285.874C31.6086 285.604 31.2396 285.25 30.9876 284.812C30.7416 284.374 30.6186 283.894 30.6186 283.372C30.6186 282.862 30.7146 282.421 30.9066 282.049C31.1046 281.671 31.3806 281.359 31.7346 281.113C32.0886 280.861 32.5116 280.663 33.0036 280.519C33.4656 280.393 33.9816 280.285 34.5516 280.195C35.1276 280.099 35.7096 280.012 36.2976 279.934C36.8856 279.856 37.4346 279.781 37.9446 279.709L37.3686 280.042C37.3866 279.178 37.2126 278.539 36.8466 278.125C36.4866 277.711 35.8626 277.504 34.9746 277.504C34.3866 277.504 33.8706 277.639 33.4266 277.909C32.9886 278.173 32.6796 278.605 32.4996 279.205L30.9786 278.746C31.2126 277.894 31.6656 277.225 32.3376 276.739C33.0096 276.253 33.8946 276.01 34.9926 276.01C35.8746 276.01 36.6306 276.169 37.2606 276.487C37.8966 276.799 38.3526 277.273 38.6286 277.909C38.7666 278.209 38.8536 278.536 38.8896 278.89C38.9256 279.238 38.9436 279.604 38.9436 279.988V286H37.5216V283.669L37.8546 283.885C37.4886 284.671 36.9756 285.265 36.3156 285.667C35.6616 286.069 34.8636 286.27 33.9216 286.27ZM34.1646 284.929C34.7406 284.929 35.2386 284.827 35.6586 284.623C36.0846 284.413 36.4266 284.14 36.6846 283.804C36.9426 283.462 37.1106 283.09 37.1886 282.688C37.2786 282.388 37.3266 282.055 37.3326 281.689C37.3446 281.317 37.3506 281.032 37.3506 280.834L37.9086 281.077C37.3866 281.149 36.8736 281.218 36.3696 281.284C35.8656 281.35 35.3886 281.422 34.9386 281.5C34.4886 281.572 34.0836 281.659 33.7236 281.761C33.4596 281.845 33.2106 281.953 32.9766 282.085C32.7486 282.217 32.5626 282.388 32.4186 282.598C32.2806 282.802 32.2116 283.057 32.2116 283.363C32.2116 283.627 32.2776 283.879 32.4096 284.119C32.5476 284.359 32.7576 284.554 33.0396 284.704C33.3276 284.854 33.7026 284.929 34.1646 284.929ZM49.0253 286.27C48.0413 286.27 47.2043 286.051 46.5143 285.613C45.8303 285.169 45.3083 284.56 44.9483 283.786C44.5883 283.012 44.4023 282.13 44.3903 281.14C44.4023 280.126 44.5913 279.235 44.9573 278.467C45.3293 277.693 45.8603 277.09 46.5503 276.658C47.2403 276.226 48.0713 276.01 49.0433 276.01C50.0693 276.01 50.9513 276.262 51.6893 276.766C52.4333 277.27 52.9313 277.96 53.1833 278.836L51.5993 279.313C51.3953 278.749 51.0623 278.311 50.6003 277.999C50.1443 277.687 49.6193 277.531 49.0253 277.531C48.3593 277.531 47.8103 277.687 47.3783 277.999C46.9463 278.305 46.6253 278.731 46.4153 279.277C46.2053 279.817 46.0973 280.438 46.0913 281.14C46.1033 282.22 46.3523 283.093 46.8383 283.759C47.3303 284.419 48.0593 284.749 49.0253 284.749C49.6613 284.749 50.1893 284.605 50.6093 284.317C51.0293 284.023 51.3473 283.6 51.5633 283.048L53.1833 283.471C52.8473 284.377 52.3223 285.07 51.6083 285.55C50.8943 286.03 50.0333 286.27 49.0253 286.27ZM61.9627 286V281.131C61.9627 280.669 61.9207 280.225 61.8367 279.799C61.7587 279.373 61.6177 278.992 61.4137 278.656C61.2157 278.314 60.9457 278.044 60.6037 277.846C60.2677 277.648 59.8417 277.549 59.3257 277.549C58.9237 277.549 58.5577 277.618 58.2277 277.756C57.9037 277.888 57.6247 278.092 57.3907 278.368C57.1567 278.644 56.9737 278.992 56.8417 279.412C56.7157 279.826 56.6527 280.315 56.6527 280.879L55.5997 280.555C55.5997 279.613 55.7677 278.806 56.1037 278.134C56.4457 277.456 56.9227 276.937 57.5347 276.577C58.1527 276.211 58.8787 276.028 59.7127 276.028C60.3427 276.028 60.8797 276.127 61.3237 276.325C61.7677 276.523 62.1367 276.787 62.4307 277.117C62.7247 277.441 62.9557 277.807 63.1237 278.215C63.2917 278.617 63.4087 279.028 63.4747 279.448C63.5467 279.862 63.5827 280.255 63.5827 280.627V286H61.9627ZM55.0327 286V273.04H56.4727V280.195H56.6527V286H55.0327ZM66.1242 274.561V272.905H67.7262V274.561H66.1242ZM66.1242 286V276.28H67.7262V286H66.1242ZM73.2112 286.27C72.4852 286.27 71.8762 286.138 71.3842 285.874C70.8982 285.604 70.5292 285.25 70.2772 284.812C70.0312 284.374 69.9082 283.894 69.9082 283.372C69.9082 282.862 70.0042 282.421 70.1962 282.049C70.3942 281.671 70.6702 281.359 71.0242 281.113C71.3782 280.861 71.8012 280.663 72.2932 280.519C72.7552 280.393 73.2712 280.285 73.8412 280.195C74.4172 280.099 74.9992 280.012 75.5872 279.934C76.1752 279.856 76.7242 279.781 77.2342 279.709L76.6582 280.042C76.6762 279.178 76.5022 278.539 76.1362 278.125C75.7762 277.711 75.1522 277.504 74.2642 277.504C73.6762 277.504 73.1602 277.639 72.7162 277.909C72.2782 278.173 71.9692 278.605 71.7892 279.205L70.2682 278.746C70.5022 277.894 70.9552 277.225 71.6272 276.739C72.2992 276.253 73.1842 276.01 74.2822 276.01C75.1642 276.01 75.9202 276.169 76.5502 276.487C77.1862 276.799 77.6422 277.273 77.9182 277.909C78.0562 278.209 78.1432 278.536 78.1792 278.89C78.2152 279.238 78.2332 279.604 78.2332 279.988V286H76.8112V283.669L77.1442 283.885C76.7782 284.671 76.2652 285.265 75.6052 285.667C74.9512 286.069 74.1532 286.27 73.2112 286.27ZM73.4542 284.929C74.0302 284.929 74.5282 284.827 74.9482 284.623C75.3742 284.413 75.7162 284.14 75.9742 283.804C76.2322 283.462 76.4002 283.09 76.4782 282.688C76.5682 282.388 76.6162 282.055 76.6222 281.689C76.6342 281.317 76.6402 281.032 76.6402 280.834L77.1982 281.077C76.6762 281.149 76.1632 281.218 75.6592 281.284C75.1552 281.35 74.6782 281.422 74.2282 281.5C73.7782 281.572 73.3732 281.659 73.0132 281.761C72.7492 281.845 72.5002 281.953 72.2662 282.085C72.0382 282.217 71.8522 282.388 71.7082 282.598C71.5702 282.802 71.5012 283.057 71.5012 283.363C71.5012 283.627 71.5672 283.879 71.6992 284.119C71.8372 284.359 72.0472 284.554 72.3292 284.704C72.6172 284.854 72.9922 284.929 73.4542 284.929ZM87.8919 286.261C86.7339 286.261 85.7829 286.009 85.0389 285.505C84.3009 284.995 83.8479 284.284 83.6799 283.372L85.3179 283.111C85.4499 283.639 85.7529 284.059 86.2269 284.371C86.7009 284.677 87.2889 284.83 87.9909 284.83C88.6569 284.83 89.1789 284.692 89.5569 284.416C89.9349 284.14 90.1239 283.765 90.1239 283.291C90.1239 283.015 90.0609 282.793 89.9349 282.625C89.8089 282.451 89.5479 282.289 89.1519 282.139C88.7619 281.989 88.1709 281.809 87.3789 281.599C86.5209 281.371 85.8459 281.134 85.3539 280.888C84.8619 280.642 84.5109 280.357 84.3009 280.033C84.0909 279.709 83.9859 279.316 83.9859 278.854C83.9859 278.284 84.1419 277.786 84.4539 277.36C84.7659 276.928 85.2009 276.595 85.7589 276.361C86.3229 276.127 86.9769 276.01 87.7209 276.01C88.4589 276.01 89.1189 276.127 89.7009 276.361C90.2829 276.595 90.7509 276.928 91.1049 277.36C91.4649 277.786 91.6779 278.284 91.7439 278.854L90.1059 279.151C90.0279 278.629 89.7759 278.218 89.3499 277.918C88.9299 277.618 88.3869 277.459 87.7209 277.441C87.0909 277.417 86.5779 277.528 86.1819 277.774C85.7919 278.02 85.5969 278.353 85.5969 278.773C85.5969 279.007 85.6689 279.208 85.8129 279.376C85.9629 279.544 86.2359 279.703 86.6319 279.853C87.0339 280.003 87.6159 280.174 88.3779 280.366C89.2359 280.582 89.9109 280.819 90.4029 281.077C90.9009 281.329 91.2549 281.629 91.4649 281.977C91.6749 282.319 91.7799 282.742 91.7799 283.246C91.7799 284.182 91.4349 284.92 90.7449 285.46C90.0549 285.994 89.1039 286.261 87.8919 286.261ZM96.9454 272.563L96.4684 271.744C96.7444 271.48 97.0684 271.303 97.4404 271.213C97.8184 271.117 98.1814 271.132 98.5294 271.258C98.8774 271.384 99.1534 271.648 99.3574 272.05C99.5134 272.368 99.5794 272.674 99.5554 272.968C99.5374 273.256 99.4534 273.52 99.3034 273.76C99.1534 274 98.9614 274.204 98.7274 274.372C98.4994 274.534 98.2534 274.651 97.9894 274.723L97.5664 274.012C97.9204 273.868 98.1814 273.667 98.3494 273.409C98.5234 273.151 98.5324 272.878 98.3764 272.59C98.2744 272.398 98.1394 272.284 97.9714 272.248C97.8034 272.206 97.6264 272.218 97.4404 272.284C97.2604 272.344 97.0954 272.437 96.9454 272.563ZM97.9984 286.27C97.0444 286.27 96.2104 286.06 95.4964 285.64C94.7884 285.214 94.2364 284.623 93.8404 283.867C93.4444 283.105 93.2464 282.217 93.2464 281.203C93.2464 280.141 93.4414 279.223 93.8314 278.449C94.2214 277.669 94.7644 277.069 95.4604 276.649C96.1624 276.223 96.9844 276.01 97.9264 276.01C98.9044 276.01 99.7354 276.235 100.419 276.685C101.109 277.135 101.625 277.777 101.967 278.611C102.315 279.445 102.465 280.438 102.417 281.59H100.797V281.014C100.779 279.82 100.536 278.929 100.068 278.341C99.6004 277.747 98.9044 277.45 97.9804 277.45C96.9904 277.45 96.2374 277.768 95.7214 278.404C95.2054 279.04 94.9474 279.952 94.9474 281.14C94.9474 282.286 95.2054 283.174 95.7214 283.804C96.2374 284.434 96.9724 284.749 97.9264 284.749C98.5684 284.749 99.1264 284.602 99.6004 284.308C100.074 284.014 100.446 283.591 100.716 283.039L102.255 283.57C101.877 284.428 101.307 285.094 100.545 285.568C99.7894 286.036 98.9404 286.27 97.9984 286.27ZM94.4074 281.59V280.303H101.589V281.59H94.4074ZM113.653 286C113.077 286.114 112.507 286.159 111.943 286.135C111.385 286.117 110.887 286.006 110.449 285.802C110.011 285.592 109.678 285.268 109.45 284.83C109.258 284.446 109.153 284.059 109.135 283.669C109.123 283.273 109.117 282.826 109.117 282.328V273.58H110.719V282.256C110.719 282.652 110.722 282.991 110.728 283.273C110.74 283.555 110.803 283.798 110.917 284.002C111.133 284.386 111.475 284.611 111.943 284.677C112.417 284.743 112.987 284.725 113.653 284.623V286ZM107.146 277.603V276.28H113.653V277.603H107.146ZM122.569 286V281.131C122.569 280.669 122.527 280.225 122.443 279.799C122.365 279.373 122.224 278.992 122.02 278.656C121.822 278.314 121.552 278.044 121.21 277.846C120.874 277.648 120.448 277.549 119.932 277.549C119.53 277.549 119.164 277.618 118.834 277.756C118.51 277.888 118.231 278.092 117.997 278.368C117.763 278.644 117.58 278.992 117.448 279.412C117.322 279.826 117.259 280.315 117.259 280.879L116.206 280.555C116.206 279.613 116.374 278.806 116.71 278.134C117.052 277.456 117.529 276.937 118.141 276.577C118.759 276.211 119.485 276.028 120.319 276.028C120.949 276.028 121.486 276.127 121.93 276.325C122.374 276.523 122.743 276.787 123.037 277.117C123.331 277.441 123.562 277.807 123.73 278.215C123.898 278.617 124.015 279.028 124.081 279.448C124.153 279.862 124.189 280.255 124.189 280.627V286H122.569ZM115.639 286V273.04H117.079V280.195H117.259V286H115.639ZM127.775 274.795L129.971 272.23H131.393L133.589 274.795H132.014L130.682 273.22L129.35 274.795H127.775ZM130.691 286.27C129.725 286.27 128.891 286.051 128.189 285.613C127.493 285.175 126.956 284.569 126.578 283.795C126.2 283.021 126.011 282.133 126.011 281.131C126.011 280.111 126.203 279.217 126.587 278.449C126.971 277.681 127.514 277.084 128.216 276.658C128.918 276.226 129.743 276.01 130.691 276.01C131.663 276.01 132.5 276.229 133.202 276.667C133.904 277.099 134.441 277.702 134.813 278.476C135.191 279.244 135.38 280.129 135.38 281.131C135.38 282.145 135.191 283.039 134.813 283.813C134.435 284.581 133.895 285.184 133.193 285.622C132.491 286.054 131.657 286.27 130.691 286.27ZM130.691 284.749C131.699 284.749 132.449 284.413 132.941 283.741C133.433 283.069 133.679 282.199 133.679 281.131C133.679 280.033 133.43 279.16 132.932 278.512C132.434 277.858 131.687 277.531 130.691 277.531C130.013 277.531 129.455 277.684 129.017 277.99C128.579 278.296 128.252 278.719 128.036 279.259C127.82 279.799 127.712 280.423 127.712 281.131C127.712 282.223 127.964 283.099 128.468 283.759C128.972 284.419 129.713 284.749 130.691 284.749ZM144.304 286V281.131C144.304 280.669 144.262 280.225 144.178 279.799C144.1 279.373 143.959 278.992 143.755 278.656C143.557 278.314 143.287 278.044 142.945 277.846C142.609 277.648 142.183 277.549 141.667 277.549C141.265 277.549 140.899 277.618 140.569 277.756C140.245 277.888 139.966 278.092 139.732 278.368C139.498 278.644 139.315 278.992 139.183 279.412C139.057 279.826 138.994 280.315 138.994 280.879L137.941 280.555C137.941 279.613 138.109 278.806 138.445 278.134C138.787 277.456 139.264 276.937 139.876 276.577C140.494 276.211 141.22 276.028 142.054 276.028C142.684 276.028 143.221 276.127 143.665 276.325C144.109 276.523 144.478 276.787 144.772 277.117C145.066 277.441 145.297 277.807 145.465 278.215C145.633 278.617 145.75 279.028 145.816 279.448C145.888 279.862 145.924 280.255 145.924 280.627V286H144.304ZM137.374 286V276.28H138.814V278.881H138.994V286H137.374ZM152.218 290.59C151.708 290.59 151.21 290.512 150.724 290.356C150.238 290.2 149.791 289.963 149.383 289.645C148.981 289.333 148.645 288.937 148.375 288.457L149.842 287.683C150.082 288.157 150.421 288.502 150.859 288.718C151.303 288.934 151.759 289.042 152.227 289.042C152.845 289.042 153.358 288.928 153.766 288.7C154.174 288.478 154.474 288.145 154.666 287.701C154.864 287.257 154.96 286.705 154.954 286.045V283.39H155.143V276.28H156.565V286.063C156.565 286.327 156.556 286.582 156.538 286.828C156.526 287.074 156.496 287.317 156.448 287.557C156.322 288.247 156.073 288.814 155.701 289.258C155.329 289.708 154.849 290.041 154.261 290.257C153.673 290.479 152.992 290.59 152.218 290.59ZM152.101 286.27C151.195 286.27 150.418 286.045 149.77 285.595C149.122 285.139 148.621 284.524 148.267 283.75C147.919 282.976 147.745 282.103 147.745 281.131C147.745 280.159 147.919 279.286 148.267 278.512C148.621 277.738 149.122 277.129 149.77 276.685C150.418 276.235 151.192 276.01 152.092 276.01C153.01 276.01 153.781 276.232 154.405 276.676C155.029 277.12 155.5 277.729 155.818 278.503C156.142 279.277 156.304 280.153 156.304 281.131C156.304 282.097 156.142 282.97 155.818 283.75C155.5 284.524 155.029 285.139 154.405 285.595C153.781 286.045 153.013 286.27 152.101 286.27ZM152.299 284.803C152.953 284.803 153.49 284.647 153.91 284.335C154.33 284.017 154.639 283.582 154.837 283.03C155.041 282.472 155.143 281.839 155.143 281.131C155.143 280.411 155.041 279.778 154.837 279.232C154.639 278.68 154.333 278.251 153.919 277.945C153.505 277.633 152.98 277.477 152.344 277.477C151.684 277.477 151.138 277.639 150.706 277.963C150.28 278.287 149.962 278.725 149.752 279.277C149.548 279.829 149.446 280.447 149.446 281.131C149.446 281.821 149.551 282.445 149.761 283.003C149.971 283.555 150.286 283.993 150.706 284.317C151.132 284.641 151.663 284.803 152.299 284.803ZM168.152 286C167.576 286.114 167.006 286.159 166.442 286.135C165.884 286.117 165.386 286.006 164.948 285.802C164.51 285.592 164.177 285.268 163.949 284.83C163.757 284.446 163.652 284.059 163.634 283.669C163.622 283.273 163.616 282.826 163.616 282.328V273.58H165.218V282.256C165.218 282.652 165.221 282.991 165.227 283.273C165.239 283.555 165.302 283.798 165.416 284.002C165.632 284.386 165.974 284.611 166.442 284.677C166.916 284.743 167.486 284.725 168.152 284.623V286ZM161.645 277.603V276.28H168.152V277.603H161.645ZM170.327 274.561V272.905H171.929V274.561H170.327ZM170.327 286V276.28H171.929V286H170.327ZM181.572 286V281.131C181.572 280.669 181.53 280.225 181.446 279.799C181.368 279.373 181.227 278.992 181.023 278.656C180.825 278.314 180.555 278.044 180.213 277.846C179.877 277.648 179.451 277.549 178.935 277.549C178.533 277.549 178.167 277.618 177.837 277.756C177.513 277.888 177.234 278.092 177 278.368C176.766 278.644 176.583 278.992 176.451 279.412C176.325 279.826 176.262 280.315 176.262 280.879L175.209 280.555C175.209 279.613 175.377 278.806 175.713 278.134C176.055 277.456 176.532 276.937 177.144 276.577C177.762 276.211 178.488 276.028 179.322 276.028C179.952 276.028 180.489 276.127 180.933 276.325C181.377 276.523 181.746 276.787 182.04 277.117C182.334 277.441 182.565 277.807 182.733 278.215C182.901 278.617 183.018 279.028 183.084 279.448C183.156 279.862 183.192 280.255 183.192 280.627V286H181.572ZM174.642 286V276.28H176.082V278.881H176.262V286H174.642ZM200.797 286L200.806 279.781C200.806 279.055 200.611 278.488 200.221 278.08C199.837 277.666 199.336 277.459 198.718 277.459C198.358 277.459 198.016 277.543 197.692 277.711C197.368 277.873 197.104 278.131 196.9 278.485C196.696 278.833 196.594 279.28 196.594 279.826L195.748 279.484C195.736 278.794 195.877 278.191 196.171 277.675C196.471 277.153 196.879 276.748 197.395 276.46C197.911 276.172 198.493 276.028 199.141 276.028C200.155 276.028 200.953 276.337 201.535 276.955C202.117 277.567 202.408 278.392 202.408 279.43L202.399 286H200.797ZM189.169 286V276.28H190.6V278.881H190.78V286H189.169ZM194.992 286L195.001 279.844C195.001 279.1 194.809 278.518 194.425 278.098C194.041 277.672 193.531 277.459 192.895 277.459C192.265 277.459 191.755 277.675 191.365 278.107C190.975 278.539 190.78 279.112 190.78 279.826L189.934 279.322C189.934 278.692 190.084 278.128 190.384 277.63C190.684 277.132 191.092 276.742 191.608 276.46C192.124 276.172 192.709 276.028 193.363 276.028C194.017 276.028 194.587 276.166 195.073 276.442C195.559 276.718 195.934 277.114 196.198 277.63C196.462 278.14 196.594 278.749 196.594 279.457L196.585 286H194.992ZM207.672 289.465V287.809H209.436V289.465H207.672ZM207.537 286.27C206.811 286.27 206.202 286.138 205.71 285.874C205.224 285.604 204.855 285.25 204.603 284.812C204.357 284.374 204.234 283.894 204.234 283.372C204.234 282.862 204.33 282.421 204.522 282.049C204.72 281.671 204.996 281.359 205.35 281.113C205.704 280.861 206.127 280.663 206.619 280.519C207.081 280.393 207.597 280.285 208.167 280.195C208.743 280.099 209.325 280.012 209.913 279.934C210.501 279.856 211.05 279.781 211.56 279.709L210.984 280.042C211.002 279.178 210.828 278.539 210.462 278.125C210.102 277.711 209.478 277.504 208.59 277.504C208.002 277.504 207.486 277.639 207.042 277.909C206.604 278.173 206.295 278.605 206.115 279.205L204.594 278.746C204.828 277.894 205.281 277.225 205.953 276.739C206.625 276.253 207.51 276.01 208.608 276.01C209.49 276.01 210.246 276.169 210.876 276.487C211.512 276.799 211.968 277.273 212.244 277.909C212.382 278.209 212.469 278.536 212.505 278.89C212.541 279.238 212.559 279.604 212.559 279.988V286H211.137V283.669L211.47 283.885C211.104 284.671 210.591 285.265 209.931 285.667C209.277 286.069 208.479 286.27 207.537 286.27ZM207.78 284.929C208.356 284.929 208.854 284.827 209.274 284.623C209.7 284.413 210.042 284.14 210.3 283.804C210.558 283.462 210.726 283.09 210.804 282.688C210.894 282.388 210.942 282.055 210.948 281.689C210.96 281.317 210.966 281.032 210.966 280.834L211.524 281.077C211.002 281.149 210.489 281.218 209.985 281.284C209.481 281.35 209.004 281.422 208.554 281.5C208.104 281.572 207.699 281.659 207.339 281.761C207.075 281.845 206.826 281.953 206.592 282.085C206.364 282.217 206.178 282.388 206.034 282.598C205.896 282.802 205.827 283.057 205.827 283.363C205.827 283.627 205.893 283.879 206.025 284.119C206.163 284.359 206.373 284.554 206.655 284.704C206.943 284.854 207.318 284.929 207.78 284.929ZM221.842 286V281.131C221.842 280.669 221.8 280.225 221.716 279.799C221.638 279.373 221.497 278.992 221.293 278.656C221.095 278.314 220.825 278.044 220.483 277.846C220.147 277.648 219.721 277.549 219.205 277.549C218.803 277.549 218.437 277.618 218.107 277.756C217.783 277.888 217.504 278.092 217.27 278.368C217.036 278.644 216.853 278.992 216.721 279.412C216.595 279.826 216.532 280.315 216.532 280.879L215.479 280.555C215.479 279.613 215.647 278.806 215.983 278.134C216.325 277.456 216.802 276.937 217.414 276.577C218.032 276.211 218.758 276.028 219.592 276.028C220.222 276.028 220.759 276.127 221.203 276.325C221.647 276.523 222.016 276.787 222.31 277.117C222.604 277.441 222.835 277.807 223.003 278.215C223.171 278.617 223.288 279.028 223.354 279.448C223.426 279.862 223.462 280.255 223.462 280.627V286H221.842ZM214.912 286V276.28H216.352V278.881H216.532V286H214.912ZM229.756 290.59C229.246 290.59 228.748 290.512 228.262 290.356C227.776 290.2 227.329 289.963 226.921 289.645C226.519 289.333 226.183 288.937 225.913 288.457L227.38 287.683C227.62 288.157 227.959 288.502 228.397 288.718C228.841 288.934 229.297 289.042 229.765 289.042C230.383 289.042 230.896 288.928 231.304 288.7C231.712 288.478 232.012 288.145 232.204 287.701C232.402 287.257 232.498 286.705 232.492 286.045V283.39H232.681V276.28H234.103V286.063C234.103 286.327 234.094 286.582 234.076 286.828C234.064 287.074 234.034 287.317 233.986 287.557C233.86 288.247 233.611 288.814 233.239 289.258C232.867 289.708 232.387 290.041 231.799 290.257C231.211 290.479 230.53 290.59 229.756 290.59ZM229.639 286.27C228.733 286.27 227.956 286.045 227.308 285.595C226.66 285.139 226.159 284.524 225.805 283.75C225.457 282.976 225.283 282.103 225.283 281.131C225.283 280.159 225.457 279.286 225.805 278.512C226.159 277.738 226.66 277.129 227.308 276.685C227.956 276.235 228.73 276.01 229.63 276.01C230.548 276.01 231.319 276.232 231.943 276.676C232.567 277.12 233.038 277.729 233.356 278.503C233.68 279.277 233.842 280.153 233.842 281.131C233.842 282.097 233.68 282.97 233.356 283.75C233.038 284.524 232.567 285.139 231.943 285.595C231.319 286.045 230.551 286.27 229.639 286.27ZM229.837 284.803C230.491 284.803 231.028 284.647 231.448 284.335C231.868 284.017 232.177 283.582 232.375 283.03C232.579 282.472 232.681 281.839 232.681 281.131C232.681 280.411 232.579 279.778 232.375 279.232C232.177 278.68 231.871 278.251 231.457 277.945C231.043 277.633 230.518 277.477 229.882 277.477C229.222 277.477 228.676 277.639 228.244 277.963C227.818 278.287 227.5 278.725 227.29 279.277C227.086 279.829 226.984 280.447 226.984 281.131C226.984 281.821 227.089 282.445 227.299 283.003C227.509 283.555 227.824 283.993 228.244 284.317C228.67 284.641 229.201 284.803 229.837 284.803ZM239.183 286L242.9 281.086L239.264 276.28H241.172L243.836 279.844L246.473 276.28H248.381L244.745 281.086L248.471 286H246.554L243.836 282.328L241.1 286H239.183ZM255.037 274.768C254.773 274.768 254.518 274.714 254.272 274.606C254.026 274.492 253.789 274.363 253.561 274.219C253.333 274.075 253.117 273.949 252.913 273.841C252.709 273.727 252.517 273.67 252.337 273.67C252.121 273.67 251.98 273.766 251.914 273.958C251.848 274.144 251.848 274.354 251.914 274.588H250.834C250.69 273.988 250.741 273.481 250.987 273.067C251.233 272.647 251.647 272.437 252.229 272.437C252.499 272.437 252.757 272.494 253.003 272.608C253.249 272.716 253.486 272.842 253.714 272.986C253.948 273.13 254.167 273.259 254.371 273.373C254.575 273.481 254.764 273.535 254.938 273.535C255.142 273.535 255.283 273.442 255.361 273.256C255.439 273.07 255.439 272.851 255.361 272.599H256.441C256.591 273.187 256.543 273.697 256.297 274.129C256.051 274.555 255.631 274.768 255.037 274.768ZM252.346 286.27C251.62 286.27 251.011 286.138 250.519 285.874C250.033 285.604 249.664 285.25 249.412 284.812C249.166 284.374 249.043 283.894 249.043 283.372C249.043 282.862 249.139 282.421 249.331 282.049C249.529 281.671 249.805 281.359 250.159 281.113C250.513 280.861 250.936 280.663 251.428 280.519C251.89 280.393 252.406 280.285 252.976 280.195C253.552 280.099 254.134 280.012 254.722 279.934C255.31 279.856 255.859 279.781 256.369 279.709L255.793 280.042C255.811 279.178 255.637 278.539 255.271 278.125C254.911 277.711 254.287 277.504 253.399 277.504C252.811 277.504 252.295 277.639 251.851 277.909C251.413 278.173 251.104 278.605 250.924 279.205L249.403 278.746C249.637 277.894 250.09 277.225 250.762 276.739C251.434 276.253 252.319 276.01 253.417 276.01C254.299 276.01 255.055 276.169 255.685 276.487C256.321 276.799 256.777 277.273 257.053 277.909C257.191 278.209 257.278 278.536 257.314 278.89C257.35 279.238 257.368 279.604 257.368 279.988V286H255.946V283.669L256.279 283.885C255.913 284.671 255.4 285.265 254.74 285.667C254.086 286.069 253.288 286.27 252.346 286.27ZM252.589 284.929C253.165 284.929 253.663 284.827 254.083 284.623C254.509 284.413 254.851 284.14 255.109 283.804C255.367 283.462 255.535 283.09 255.613 282.688C255.703 282.388 255.751 282.055 255.757 281.689C255.769 281.317 255.775 281.032 255.775 280.834L256.333 281.077C255.811 281.149 255.298 281.218 254.794 281.284C254.29 281.35 253.813 281.422 253.363 281.5C252.913 281.572 252.508 281.659 252.148 281.761C251.884 281.845 251.635 281.953 251.401 282.085C251.173 282.217 250.987 282.388 250.843 282.598C250.705 282.802 250.636 283.057 250.636 283.363C250.636 283.627 250.702 283.879 250.834 284.119C250.972 284.359 251.182 284.554 251.464 284.704C251.752 284.854 252.127 284.929 252.589 284.929ZM270.276 286V281.131C270.276 280.669 270.234 280.225 270.15 279.799C270.072 279.373 269.931 278.992 269.727 278.656C269.529 278.314 269.259 278.044 268.917 277.846C268.581 277.648 268.155 277.549 267.639 277.549C267.237 277.549 266.871 277.618 266.541 277.756C266.217 277.888 265.938 278.092 265.704 278.368C265.47 278.644 265.287 278.992 265.155 279.412C265.029 279.826 264.966 280.315 264.966 280.879L263.913 280.555C263.913 279.613 264.081 278.806 264.417 278.134C264.759 277.456 265.236 276.937 265.848 276.577C266.466 276.211 267.192 276.028 268.026 276.028C268.656 276.028 269.193 276.127 269.637 276.325C270.081 276.523 270.45 276.787 270.744 277.117C271.038 277.441 271.269 277.807 271.437 278.215C271.605 278.617 271.722 279.028 271.788 279.448C271.86 279.862 271.896 280.255 271.896 280.627V286H270.276ZM263.346 286V273.04H264.786V280.195H264.966V286H263.346ZM277.624 289.465V287.809H279.388V289.465H277.624ZM275.482 274.795L277.678 272.23H279.1L281.296 274.795H279.721L278.389 273.22L277.057 274.795H275.482ZM278.398 286.27C277.432 286.27 276.598 286.051 275.896 285.613C275.2 285.175 274.663 284.569 274.285 283.795C273.907 283.021 273.718 282.133 273.718 281.131C273.718 280.111 273.91 279.217 274.294 278.449C274.678 277.681 275.221 277.084 275.923 276.658C276.625 276.226 277.45 276.01 278.398 276.01C279.37 276.01 280.207 276.229 280.909 276.667C281.611 277.099 282.148 277.702 282.52 278.476C282.898 279.244 283.087 280.129 283.087 281.131C283.087 282.145 282.898 283.039 282.52 283.813C282.142 284.581 281.602 285.184 280.9 285.622C280.198 286.054 279.364 286.27 278.398 286.27ZM278.398 284.749C279.406 284.749 280.156 284.413 280.648 283.741C281.14 283.069 281.386 282.199 281.386 281.131C281.386 280.033 281.137 279.16 280.639 278.512C280.141 277.858 279.394 277.531 278.398 277.531C277.72 277.531 277.162 277.684 276.724 277.99C276.286 278.296 275.959 278.719 275.743 279.259C275.527 279.799 275.419 280.423 275.419 281.131C275.419 282.223 275.671 283.099 276.175 283.759C276.679 284.419 277.42 284.749 278.398 284.749ZM285.27 274.561V272.905H286.872V274.561H285.27ZM285.27 286V276.28H286.872V286H285.27ZM297.314 286.27C296.33 286.27 295.493 286.051 294.803 285.613C294.119 285.169 293.597 284.56 293.237 283.786C292.877 283.012 292.691 282.13 292.679 281.14C292.691 280.126 292.88 279.235 293.246 278.467C293.618 277.693 294.149 277.09 294.839 276.658C295.529 276.226 296.36 276.01 297.332 276.01C298.358 276.01 299.24 276.262 299.978 276.766C300.722 277.27 301.22 277.96 301.472 278.836L299.888 279.313C299.684 278.749 299.351 278.311 298.889 277.999C298.433 277.687 297.908 277.531 297.314 277.531C296.648 277.531 296.099 277.687 295.667 277.999C295.235 278.305 294.914 278.731 294.704 279.277C294.494 279.817 294.386 280.438 294.38 281.14C294.392 282.22 294.641 283.093 295.127 283.759C295.619 284.419 296.348 284.749 297.314 284.749C297.95 284.749 298.478 284.605 298.898 284.317C299.318 284.023 299.636 283.6 299.852 283.048L301.472 283.471C301.136 284.377 300.611 285.07 299.897 285.55C299.183 286.03 298.322 286.27 297.314 286.27ZM310.251 286V281.131C310.251 280.669 310.209 280.225 310.125 279.799C310.047 279.373 309.906 278.992 309.702 278.656C309.504 278.314 309.234 278.044 308.892 277.846C308.556 277.648 308.13 277.549 307.614 277.549C307.212 277.549 306.846 277.618 306.516 277.756C306.192 277.888 305.913 278.092 305.679 278.368C305.445 278.644 305.262 278.992 305.13 279.412C305.004 279.826 304.941 280.315 304.941 280.879L303.888 280.555C303.888 279.613 304.056 278.806 304.392 278.134C304.734 277.456 305.211 276.937 305.823 276.577C306.441 276.211 307.167 276.028 308.001 276.028C308.631 276.028 309.168 276.127 309.612 276.325C310.056 276.523 310.425 276.787 310.719 277.117C311.013 277.441 311.244 277.807 311.412 278.215C311.58 278.617 311.697 279.028 311.763 279.448C311.835 279.862 311.871 280.255 311.871 280.627V286H310.251ZM303.321 286V273.04H304.761V280.195H304.941V286H303.321ZM313.972 272.563L313.504 271.744C313.78 271.48 314.104 271.303 314.476 271.213C314.848 271.117 315.208 271.132 315.556 271.258C315.91 271.384 316.189 271.648 316.393 272.05C316.549 272.368 316.615 272.674 316.591 272.968C316.573 273.256 316.489 273.52 316.339 273.76C316.189 274 315.997 274.204 315.763 274.372C315.529 274.534 315.283 274.651 315.025 274.723L314.602 274.012C314.956 273.868 315.217 273.667 315.385 273.409C315.553 273.151 315.562 272.878 315.412 272.59C315.31 272.398 315.175 272.284 315.007 272.248C314.839 272.206 314.662 272.218 314.476 272.284C314.296 272.344 314.128 272.437 313.972 272.563ZM314.413 286V276.28H316.015V286H314.413ZM327.789 286C327.213 286.114 326.643 286.159 326.079 286.135C325.521 286.117 325.023 286.006 324.585 285.802C324.147 285.592 323.814 285.268 323.586 284.83C323.394 284.446 323.289 284.059 323.271 283.669C323.259 283.273 323.253 282.826 323.253 282.328V273.58H324.855V282.256C324.855 282.652 324.858 282.991 324.864 283.273C324.876 283.555 324.939 283.798 325.053 284.002C325.269 284.386 325.611 284.611 326.079 284.677C326.553 284.743 327.123 284.725 327.789 284.623V286ZM321.282 277.603V276.28H327.789V277.603H321.282ZM329.784 286V276.28H331.215V278.629L330.981 278.323C331.095 278.023 331.242 277.747 331.422 277.495C331.608 277.243 331.815 277.036 332.043 276.874C332.295 276.67 332.58 276.514 332.898 276.406C333.216 276.298 333.54 276.235 333.87 276.217C334.2 276.193 334.509 276.214 334.797 276.28V277.783C334.461 277.693 334.092 277.669 333.69 277.711C333.288 277.753 332.916 277.9 332.574 278.152C332.262 278.374 332.019 278.644 331.845 278.962C331.677 279.28 331.56 279.625 331.494 279.997C331.428 280.363 331.395 280.738 331.395 281.122V286H329.784ZM340.485 286.27C339.519 286.27 338.685 286.051 337.983 285.613C337.287 285.175 336.75 284.569 336.372 283.795C335.994 283.021 335.805 282.133 335.805 281.131C335.805 280.111 335.997 279.217 336.381 278.449C336.765 277.681 337.308 277.084 338.01 276.658C338.712 276.226 339.537 276.01 340.485 276.01C341.457 276.01 342.294 276.229 342.996 276.667C343.698 277.099 344.235 277.702 344.607 278.476C344.985 279.244 345.174 280.129 345.174 281.131C345.174 282.145 344.985 283.039 344.607 283.813C344.229 284.581 343.689 285.184 342.987 285.622C342.285 286.054 341.451 286.27 340.485 286.27ZM340.485 284.749C341.493 284.749 342.243 284.413 342.735 283.741C343.227 283.069 343.473 282.199 343.473 281.131C343.473 280.033 343.224 279.16 342.726 278.512C342.228 277.858 341.481 277.531 340.485 277.531C339.807 277.531 339.249 277.684 338.811 277.99C338.373 278.296 338.046 278.719 337.83 279.259C337.614 279.799 337.506 280.423 337.506 281.131C337.506 282.223 337.758 283.099 338.262 283.759C338.766 284.419 339.507 284.749 340.485 284.749ZM354.098 286V281.131C354.098 280.669 354.056 280.225 353.972 279.799C353.894 279.373 353.753 278.992 353.549 278.656C353.351 278.314 353.081 278.044 352.739 277.846C352.403 277.648 351.977 277.549 351.461 277.549C351.059 277.549 350.693 277.618 350.363 277.756C350.039 277.888 349.76 278.092 349.526 278.368C349.292 278.644 349.109 278.992 348.977 279.412C348.851 279.826 348.788 280.315 348.788 280.879L347.735 280.555C347.735 279.613 347.903 278.806 348.239 278.134C348.581 277.456 349.058 276.937 349.67 276.577C350.288 276.211 351.014 276.028 351.848 276.028C352.478 276.028 353.015 276.127 353.459 276.325C353.903 276.523 354.272 276.787 354.566 277.117C354.86 277.441 355.091 277.807 355.259 278.215C355.427 278.617 355.544 279.028 355.61 279.448C355.682 279.862 355.718 280.255 355.718 280.627V286H354.098ZM347.168 286V276.28H348.608V278.881H348.788V286H347.168ZM362.012 290.59C361.502 290.59 361.004 290.512 360.518 290.356C360.032 290.2 359.585 289.963 359.177 289.645C358.775 289.333 358.439 288.937 358.169 288.457L359.636 287.683C359.876 288.157 360.215 288.502 360.653 288.718C361.097 288.934 361.553 289.042 362.021 289.042C362.639 289.042 363.152 288.928 363.56 288.7C363.968 288.478 364.268 288.145 364.46 287.701C364.658 287.257 364.754 286.705 364.748 286.045V283.39H364.937V276.28H366.359V286.063C366.359 286.327 366.35 286.582 366.332 286.828C366.32 287.074 366.29 287.317 366.242 287.557C366.116 288.247 365.867 288.814 365.495 289.258C365.123 289.708 364.643 290.041 364.055 290.257C363.467 290.479 362.786 290.59 362.012 290.59ZM361.895 286.27C360.989 286.27 360.212 286.045 359.564 285.595C358.916 285.139 358.415 284.524 358.061 283.75C357.713 282.976 357.539 282.103 357.539 281.131C357.539 280.159 357.713 279.286 358.061 278.512C358.415 277.738 358.916 277.129 359.564 276.685C360.212 276.235 360.986 276.01 361.886 276.01C362.804 276.01 363.575 276.232 364.199 276.676C364.823 277.12 365.294 277.729 365.612 278.503C365.936 279.277 366.098 280.153 366.098 281.131C366.098 282.097 365.936 282.97 365.612 283.75C365.294 284.524 364.823 285.139 364.199 285.595C363.575 286.045 362.807 286.27 361.895 286.27ZM362.093 284.803C362.747 284.803 363.284 284.647 363.704 284.335C364.124 284.017 364.433 283.582 364.631 283.03C364.835 282.472 364.937 281.839 364.937 281.131C364.937 280.411 364.835 279.778 364.631 279.232C364.433 278.68 364.127 278.251 363.713 277.945C363.299 277.633 362.774 277.477 362.138 277.477C361.478 277.477 360.932 277.639 360.5 277.963C360.074 278.287 359.756 278.725 359.546 279.277C359.342 279.829 359.24 280.447 359.24 281.131C359.24 281.821 359.345 282.445 359.555 283.003C359.765 283.555 360.08 283.993 360.5 284.317C360.926 284.641 361.457 284.803 362.093 284.803ZM374.778 286V274.813L372.339 276.289V274.498L374.778 273.04H376.407V286H374.778ZM383.525 286.261C382.367 286.261 381.416 286.009 380.672 285.505C379.934 284.995 379.481 284.284 379.313 283.372L380.951 283.111C381.083 283.639 381.386 284.059 381.86 284.371C382.334 284.677 382.922 284.83 383.624 284.83C384.29 284.83 384.812 284.692 385.19 284.416C385.568 284.14 385.757 283.765 385.757 283.291C385.757 283.015 385.694 282.793 385.568 282.625C385.442 282.451 385.181 282.289 384.785 282.139C384.395 281.989 383.804 281.809 383.012 281.599C382.154 281.371 381.479 281.134 380.987 280.888C380.495 280.642 380.144 280.357 379.934 280.033C379.724 279.709 379.619 279.316 379.619 278.854C379.619 278.284 379.775 277.786 380.087 277.36C380.399 276.928 380.834 276.595 381.392 276.361C381.956 276.127 382.61 276.01 383.354 276.01C384.092 276.01 384.752 276.127 385.334 276.361C385.916 276.595 386.384 276.928 386.738 277.36C387.098 277.786 387.311 278.284 387.377 278.854L385.739 279.151C385.661 278.629 385.409 278.218 384.983 277.918C384.563 277.618 384.02 277.459 383.354 277.441C382.724 277.417 382.211 277.528 381.815 277.774C381.425 278.02 381.23 278.353 381.23 278.773C381.23 279.007 381.302 279.208 381.446 279.376C381.596 279.544 381.869 279.703 382.265 279.853C382.667 280.003 383.249 280.174 384.011 280.366C384.869 280.582 385.544 280.819 386.036 281.077C386.534 281.329 386.888 281.629 387.098 281.977C387.308 282.319 387.413 282.742 387.413 283.246C387.413 284.182 387.068 284.92 386.378 285.46C385.688 285.994 384.737 286.261 383.525 286.261ZM389.707 286V284.236H391.471V286H389.707Z" fill="#777E90"/>
<path d="M32.976 53.72C29.52 53.72 26.56 52.968 24.096 51.464C21.632 49.944 19.736 47.832 18.408 45.128C17.096 42.424 16.44 39.288 16.44 35.72C16.44 32.152 17.096 29.016 18.408 26.312C19.736 23.608 21.632 21.504 24.096 20C26.56 18.48 29.52 17.72 32.976 17.72C36.96 17.72 40.28 18.72 42.936 20.72C45.592 22.704 47.456 25.384 48.528 28.76L42.696 30.368C42.024 28.112 40.88 26.352 39.264 25.088C37.648 23.808 35.552 23.168 32.976 23.168C30.656 23.168 28.72 23.688 27.168 24.728C25.632 25.768 24.472 27.232 23.688 29.12C22.92 30.992 22.528 33.192 22.512 35.72C22.512 38.248 22.896 40.456 23.664 42.344C24.448 44.216 25.616 45.672 27.168 46.712C28.72 47.752 30.656 48.272 32.976 48.272C35.552 48.272 37.648 47.632 39.264 46.352C40.88 45.072 42.024 43.312 42.696 41.072L48.528 42.68C47.456 46.056 45.592 48.744 42.936 50.744C40.28 52.728 36.96 53.72 32.976 53.72ZM61.0455 53.72C59.1735 53.72 57.5895 53.368 56.2935 52.664C54.9975 51.944 54.0135 50.992 53.3415 49.808C52.6855 48.624 52.3575 47.32 52.3575 45.896C52.3575 44.648 52.5655 43.528 52.9815 42.536C53.3975 41.528 54.0375 40.664 54.9015 39.944C55.7655 39.208 56.8855 38.608 58.2615 38.144C59.3015 37.808 60.5175 37.504 61.9095 37.232C63.3175 36.96 64.8375 36.712 66.4695 36.488C68.1175 36.248 69.8375 35.992 71.6295 35.72L69.5655 36.896C69.5815 35.104 69.1815 33.784 68.3655 32.936C67.5495 32.088 66.1735 31.664 64.2375 31.664C63.0695 31.664 61.9415 31.936 60.8535 32.48C59.7655 33.024 59.0055 33.96 58.5735 35.288L53.2935 33.632C53.9335 31.44 55.1495 29.68 56.9415 28.352C58.7495 27.024 61.1815 26.36 64.2375 26.36C66.5415 26.36 68.5655 26.736 70.3095 27.488C72.0695 28.24 73.3735 29.472 74.2215 31.184C74.6855 32.096 74.9655 33.032 75.0615 33.992C75.1575 34.936 75.2055 35.968 75.2055 37.088V53H70.1415V47.384L70.9815 48.296C69.8135 50.168 68.4455 51.544 66.8775 52.424C65.3255 53.288 63.3815 53.72 61.0455 53.72ZM62.1975 49.112C63.5095 49.112 64.6295 48.88 65.5575 48.416C66.4855 47.952 67.2215 47.384 67.7655 46.712C68.3255 46.04 68.7015 45.408 68.8935 44.816C69.1975 44.08 69.3655 43.24 69.3975 42.296C69.4455 41.336 69.4695 40.56 69.4695 39.968L71.2455 40.496C69.5015 40.768 68.0055 41.008 66.7575 41.216C65.5095 41.424 64.4375 41.624 63.5415 41.816C62.6455 41.992 61.8535 42.192 61.1655 42.416C60.4935 42.656 59.9255 42.936 59.4615 43.256C58.9975 43.576 58.6375 43.944 58.3815 44.36C58.1415 44.776 58.0215 45.264 58.0215 45.824C58.0215 46.464 58.1815 47.032 58.5015 47.528C58.8215 48.008 59.2855 48.392 59.8935 48.68C60.5175 48.968 61.2855 49.112 62.1975 49.112ZM81.4538 53V27.08H86.5658V33.392L85.9418 32.576C86.2618 31.712 86.6858 30.928 87.2138 30.224C87.7578 29.504 88.4058 28.912 89.1578 28.448C89.7978 28.016 90.5018 27.68 91.2698 27.44C92.0538 27.184 92.8538 27.032 93.6698 26.984C94.4858 26.92 95.2778 26.952 96.0458 27.08V32.48C95.2778 32.256 94.3898 32.184 93.3818 32.264C92.3898 32.344 91.4938 32.624 90.6938 33.104C89.8938 33.536 89.2378 34.088 88.7258 34.76C88.2298 35.432 87.8618 36.2 87.6218 37.064C87.3818 37.912 87.2618 38.832 87.2618 39.824V53H81.4538ZM110.549 53.72C108.165 53.72 106.085 53.12 104.309 51.92C102.533 50.72 101.157 49.088 100.181 47.024C99.2049 44.96 98.7169 42.632 98.7169 40.04C98.7169 37.416 99.2049 35.08 100.181 33.032C101.173 30.968 102.573 29.344 104.381 28.16C106.189 26.96 108.317 26.36 110.765 26.36C113.229 26.36 115.293 26.96 116.957 28.16C118.637 29.344 119.909 30.968 120.773 33.032C121.637 35.096 122.069 37.432 122.069 40.04C122.069 42.616 121.637 44.944 120.773 47.024C119.909 49.088 118.621 50.72 116.909 51.92C115.197 53.12 113.077 53.72 110.549 53.72ZM111.437 48.536C112.989 48.536 114.237 48.184 115.181 47.48C116.141 46.76 116.837 45.76 117.269 44.48C117.717 43.2 117.941 41.72 117.941 40.04C117.941 38.344 117.717 36.864 117.269 35.6C116.837 34.32 116.157 33.328 115.229 32.624C114.301 31.904 113.101 31.544 111.629 31.544C110.077 31.544 108.797 31.928 107.789 32.696C106.781 33.448 106.037 34.472 105.557 35.768C105.077 37.048 104.837 38.472 104.837 40.04C104.837 41.624 105.069 43.064 105.533 44.36C106.013 45.64 106.741 46.656 107.717 47.408C108.693 48.16 109.933 48.536 111.437 48.536ZM117.941 53V34.808H117.221V18.44H123.053V53H117.941ZM146.399 53L136.991 27.08H142.775L149.303 45.872L155.807 27.08H161.615L152.207 53H146.399ZM166.403 23.144V17.84H172.187V23.144H166.403ZM166.403 53V27.08H172.187V53H166.403ZM189.384 53.72C186.184 53.72 183.584 53 181.584 51.56C179.584 50.12 178.368 48.096 177.936 45.488L183.84 44.576C184.144 45.856 184.816 46.864 185.856 47.6C186.896 48.336 188.208 48.704 189.792 48.704C191.184 48.704 192.256 48.432 193.008 47.888C193.776 47.328 194.16 46.568 194.16 45.608C194.16 45.016 194.016 44.544 193.728 44.192C193.456 43.824 192.848 43.472 191.904 43.136C190.96 42.8 189.512 42.376 187.56 41.864C185.384 41.288 183.656 40.672 182.376 40.016C181.096 39.344 180.176 38.552 179.616 37.64C179.056 36.728 178.776 35.624 178.776 34.328C178.776 32.712 179.2 31.304 180.048 30.104C180.896 28.904 182.08 27.984 183.6 27.344C185.12 26.688 186.912 26.36 188.976 26.36C190.992 26.36 192.776 26.672 194.328 27.296C195.896 27.92 197.16 28.808 198.12 29.96C199.08 31.112 199.672 32.464 199.896 34.016L193.992 35.072C193.848 33.968 193.344 33.096 192.48 32.456C191.632 31.816 190.496 31.456 189.072 31.376C187.712 31.296 186.616 31.504 185.784 32C184.952 32.48 184.536 33.16 184.536 34.04C184.536 34.536 184.704 34.96 185.04 35.312C185.376 35.664 186.048 36.016 187.056 36.368C188.08 36.72 189.6 37.152 191.616 37.664C193.68 38.192 195.328 38.8 196.56 39.488C197.808 40.16 198.704 40.968 199.248 41.912C199.808 42.856 200.088 44 200.088 45.344C200.088 47.952 199.136 50 197.232 51.488C195.344 52.976 192.728 53.72 189.384 53.72ZM205.824 23.144V17.84H211.608V23.144H205.824ZM205.824 53V27.08H211.608V53H205.824ZM233.99 53C232.278 53.32 230.598 53.456 228.95 53.408C227.318 53.376 225.854 53.08 224.558 52.52C223.262 51.944 222.278 51.04 221.605 49.808C221.014 48.688 220.702 47.544 220.67 46.376C220.638 45.208 220.622 43.888 220.622 42.416V19.88H226.382V42.08C226.382 43.12 226.39 44.032 226.406 44.816C226.438 45.6 226.606 46.24 226.91 46.736C227.486 47.696 228.406 48.232 229.67 48.344C230.934 48.456 232.374 48.392 233.99 48.152V53ZM215.918 31.616V27.08H233.99V31.616H215.918ZM339.012 94.992V90.504H351.828V94.992H339.012ZM336.252 123.72C333.868 123.72 331.788 123.12 330.012 121.92C328.236 120.72 326.86 119.088 325.884 117.024C324.908 114.96 324.42 112.632 324.42 110.04C324.42 107.416 324.908 105.08 325.884 103.032C326.876 100.968 328.276 99.344 330.084 98.16C331.892 96.96 334.02 96.36 336.468 96.36C338.932 96.36 340.996 96.96 342.66 98.16C344.34 99.344 345.612 100.968 346.476 103.032C347.34 105.096 347.772 107.432 347.772 110.04C347.772 112.616 347.34 114.944 346.476 117.024C345.612 119.088 344.324 120.72 342.612 121.92C340.9 123.12 338.78 123.72 336.252 123.72ZM337.14 118.536C338.692 118.536 339.94 118.184 340.884 117.48C341.844 116.76 342.54 115.76 342.972 114.48C343.42 113.2 343.644 111.72 343.644 110.04C343.644 108.344 343.42 106.864 342.972 105.6C342.54 104.32 341.86 103.328 340.932 102.624C340.004 101.904 338.804 101.544 337.332 101.544C335.78 101.544 334.5 101.928 333.492 102.696C332.484 103.448 331.74 104.472 331.26 105.768C330.78 107.048 330.54 108.472 330.54 110.04C330.54 111.624 330.772 113.064 331.236 114.36C331.716 115.64 332.444 116.656 333.42 117.408C334.396 118.16 335.636 118.536 337.14 118.536ZM343.644 123V104.808H342.924V88.44H348.756V123H343.644ZM357.381 93.36L363.933 85.8H368.781L375.333 93.36H369.933L366.357 89.088L362.757 93.36H357.381ZM374.565 88.32L370.869 79.44H375.261L378.957 88.32H374.565ZM362.733 123.72C360.861 123.72 359.277 123.368 357.981 122.664C356.685 121.944 355.701 120.992 355.029 119.808C354.373 118.624 354.045 117.32 354.045 115.896C354.045 114.648 354.253 113.528 354.669 112.536C355.085 111.528 355.725 110.664 356.589 109.944C357.453 109.208 358.573 108.608 359.949 108.144C360.989 107.808 362.205 107.504 363.597 107.232C365.005 106.96 366.525 106.712 368.157 106.488C369.805 106.248 371.525 105.992 373.317 105.72L371.253 106.896C371.269 105.104 370.869 103.784 370.053 102.936C369.237 102.088 367.861 101.664 365.925 101.664C364.757 101.664 363.629 101.936 362.541 102.48C361.453 103.024 360.693 103.96 360.261 105.288L354.981 103.632C355.621 101.44 356.837 99.68 358.629 98.352C360.437 97.024 362.869 96.36 365.925 96.36C368.229 96.36 370.253 96.736 371.997 97.488C373.757 98.24 375.061 99.472 375.909 101.184C376.373 102.096 376.653 103.032 376.749 103.992C376.845 104.936 376.893 105.968 376.893 107.088V123H371.829V117.384L372.669 118.296C371.501 120.168 370.133 121.544 368.565 122.424C367.013 123.288 365.069 123.72 362.733 123.72ZM363.885 119.112C365.197 119.112 366.317 118.88 367.245 118.416C368.173 117.952 368.909 117.384 369.453 116.712C370.013 116.04 370.389 115.408 370.581 114.816C370.885 114.08 371.053 113.24 371.085 112.296C371.133 111.336 371.157 110.56 371.157 109.968L372.933 110.496C371.189 110.768 369.693 111.008 368.445 111.216C367.197 111.424 366.125 111.624 365.229 111.816C364.333 111.992 363.541 112.192 362.853 112.416C362.181 112.656 361.613 112.936 361.149 113.256C360.685 113.576 360.325 113.944 360.069 114.36C359.829 114.776 359.709 115.264 359.709 115.824C359.709 116.464 359.869 117.032 360.189 117.528C360.509 118.008 360.973 118.392 361.581 118.68C362.205 118.968 362.973 119.112 363.885 119.112ZM392.861 123.744C390.941 123.744 389.357 123.424 388.109 122.784C386.861 122.144 385.869 121.328 385.133 120.336C384.397 119.344 383.853 118.288 383.501 117.168C383.149 116.048 382.917 114.992 382.805 114C382.709 112.992 382.661 112.176 382.661 111.552V97.08H388.517V109.56C388.517 110.36 388.573 111.264 388.685 112.272C388.797 113.264 389.053 114.224 389.453 115.152C389.869 116.064 390.477 116.816 391.277 117.408C392.093 118 393.189 118.296 394.565 118.296C395.301 118.296 396.029 118.176 396.749 117.936C397.469 117.696 398.117 117.288 398.693 116.712C399.285 116.12 399.757 115.312 400.109 114.288C400.461 113.264 400.637 111.968 400.637 110.4L404.069 111.864C404.069 114.072 403.637 116.072 402.773 117.864C401.925 119.656 400.669 121.088 399.005 122.16C397.341 123.216 395.293 123.744 392.861 123.744ZM401.333 123V114.96H400.637V97.08H406.445V123H401.333ZM437.99 123C436.278 123.32 434.598 123.456 432.95 123.408C431.318 123.376 429.854 123.08 428.558 122.52C427.262 121.944 426.278 121.04 425.605 119.808C425.014 118.688 424.702 117.544 424.67 116.376C424.638 115.208 424.622 113.888 424.622 112.416V89.88H430.382V112.08C430.382 113.12 430.39 114.032 430.406 114.816C430.438 115.6 430.606 116.24 430.91 116.736C431.486 117.696 432.406 118.232 433.67 118.344C434.934 118.456 436.374 118.392 437.99 118.152V123ZM419.918 101.616V97.08H437.99V101.616H419.918ZM444.043 93.144V87.84H449.827V93.144H444.043ZM444.043 123V97.08H449.827V123H444.043ZM459.416 93.36L465.968 85.8H470.816L477.368 93.36H471.968L468.392 89.088L464.816 93.36H459.416ZM468.8 123.72C466.176 123.72 463.872 123.152 461.888 122.016C459.904 120.88 458.352 119.304 457.232 117.288C456.128 115.272 455.576 112.952 455.576 110.328C455.576 107.496 456.12 105.04 457.208 102.96C458.296 100.864 459.808 99.24 461.744 98.088C463.68 96.936 465.92 96.36 468.464 96.36C471.152 96.36 473.432 96.992 475.304 98.256C477.192 99.504 478.592 101.272 479.504 103.56C480.416 105.848 480.76 108.544 480.536 111.648H474.8V109.536C474.784 106.72 474.288 104.664 473.312 103.368C472.336 102.072 470.8 101.424 468.704 101.424C466.336 101.424 464.576 102.16 463.424 103.632C462.272 105.088 461.696 107.224 461.696 110.04C461.696 112.664 462.272 114.696 463.424 116.136C464.576 117.576 466.256 118.296 468.464 118.296C469.888 118.296 471.112 117.984 472.136 117.36C473.176 116.72 473.976 115.8 474.536 114.6L480.248 116.328C479.256 118.664 477.72 120.48 475.64 121.776C473.576 123.072 471.296 123.72 468.8 123.72ZM459.872 111.648V107.28H477.704V111.648H459.872ZM503.116 123V110.52C503.116 109.704 503.06 108.8 502.948 107.808C502.836 106.816 502.572 105.864 502.156 104.952C501.756 104.024 501.148 103.264 500.332 102.672C499.532 102.08 498.444 101.784 497.068 101.784C496.332 101.784 495.604 101.904 494.884 102.144C494.164 102.384 493.508 102.8 492.916 103.392C492.34 103.968 491.876 104.768 491.524 105.792C491.172 106.8 490.996 108.096 490.996 109.68L487.564 108.216C487.564 106.008 487.988 104.008 488.836 102.216C489.7 100.424 490.964 99 492.628 97.944C494.292 96.872 496.34 96.336 498.772 96.336C500.692 96.336 502.276 96.656 503.524 97.296C504.772 97.936 505.764 98.752 506.5 99.744C507.236 100.736 507.78 101.792 508.132 102.912C508.484 104.032 508.708 105.096 508.804 106.104C508.916 107.096 508.972 107.904 508.972 108.528V123H503.116ZM485.14 123V97.08H490.3V105.12H490.996V123H485.14ZM33.552 193C31.84 193.32 30.16 193.456 28.512 193.408C26.88 193.376 25.416 193.08 24.12 192.52C22.824 191.944 21.84 191.04 21.168 189.808C20.576 188.688 20.264 187.544 20.232 186.376C20.2 185.208 20.184 183.888 20.184 182.416V159.88H25.944V182.08C25.944 183.12 25.952 184.032 25.968 184.816C26 185.6 26.168 186.24 26.472 186.736C27.048 187.696 27.968 188.232 29.232 188.344C30.496 188.456 31.936 188.392 33.552 188.152V193ZM15.48 171.616V167.08H33.552V171.616H15.48ZM46.8536 202.312V197.008H52.7816V202.312H46.8536ZM46.3736 193.72C44.5016 193.72 42.9176 193.368 41.6216 192.664C40.3256 191.944 39.3416 190.992 38.6696 189.808C38.0136 188.624 37.6856 187.32 37.6856 185.896C37.6856 184.648 37.8936 183.528 38.3096 182.536C38.7256 181.528 39.3656 180.664 40.2296 179.944C41.0936 179.208 42.2136 178.608 43.5896 178.144C44.6296 177.808 45.8456 177.504 47.2376 177.232C48.6456 176.96 50.1656 176.712 51.7976 176.488C53.4456 176.248 55.1656 175.992 56.9576 175.72L54.8936 176.896C54.9096 175.104 54.5096 173.784 53.6936 172.936C52.8776 172.088 51.5016 171.664 49.5656 171.664C48.3976 171.664 47.2696 171.936 46.1816 172.48C45.0936 173.024 44.3336 173.96 43.9016 175.288L38.6216 173.632C39.2616 171.44 40.4776 169.68 42.2696 168.352C44.0776 167.024 46.5096 166.36 49.5656 166.36C51.8696 166.36 53.8936 166.736 55.6376 167.488C57.3976 168.24 58.7016 169.472 59.5496 171.184C60.0136 172.096 60.2936 173.032 60.3896 173.992C60.4856 174.936 60.5336 175.968 60.5336 177.088V193H55.4696V187.384L56.3096 188.296C55.1416 190.168 53.7736 191.544 52.2056 192.424C50.6536 193.288 48.7096 193.72 46.3736 193.72ZM47.5256 189.112C48.8376 189.112 49.9576 188.88 50.8856 188.416C51.8136 187.952 52.5496 187.384 53.0936 186.712C53.6536 186.04 54.0296 185.408 54.2216 184.816C54.5256 184.08 54.6936 183.24 54.7256 182.296C54.7736 181.336 54.7976 180.56 54.7976 179.968L56.5736 180.496C54.8296 180.768 53.3336 181.008 52.0856 181.216C50.8376 181.424 49.7656 181.624 48.8696 181.816C47.9736 181.992 47.1816 182.192 46.4936 182.416C45.8216 182.656 45.2536 182.936 44.7896 183.256C44.3256 183.576 43.9656 183.944 43.7096 184.36C43.4696 184.776 43.3496 185.264 43.3496 185.824C43.3496 186.464 43.5096 187.032 43.8296 187.528C44.1496 188.008 44.6136 188.392 45.2216 188.68C45.8456 188.968 46.6136 189.112 47.5256 189.112ZM67.2619 163.144V157.84H73.0459V163.144H67.2619ZM67.2619 193V167.08H73.0459V193H67.2619ZM97.6204 193L86.7244 158.44H92.6764L101.796 187.384L111.036 158.44H116.988L106.092 193H97.6204ZM120.137 163.144V157.84H125.921V163.144H120.137ZM120.137 193V167.08H125.921V193H120.137ZM141.222 202.312V197.008H147.15V202.312H141.222ZM135.51 163.36L142.062 155.8H146.91L153.462 163.36H148.062L144.486 159.088L140.91 163.36H135.51ZM144.894 193.72C142.27 193.72 139.966 193.152 137.982 192.016C135.998 190.88 134.446 189.304 133.326 187.288C132.222 185.272 131.67 182.952 131.67 180.328C131.67 177.496 132.214 175.04 133.302 172.96C134.39 170.864 135.902 169.24 137.838 168.088C139.774 166.936 142.014 166.36 144.558 166.36C147.246 166.36 149.526 166.992 151.398 168.256C153.286 169.504 154.686 171.272 155.598 173.56C156.51 175.848 156.854 178.544 156.63 181.648H150.894V179.536C150.878 176.72 150.382 174.664 149.406 173.368C148.43 172.072 146.894 171.424 144.798 171.424C142.43 171.424 140.67 172.16 139.518 173.632C138.366 175.088 137.79 177.224 137.79 180.04C137.79 182.664 138.366 184.696 139.518 186.136C140.67 187.576 142.35 188.296 144.558 188.296C145.982 188.296 147.206 187.984 148.23 187.36C149.27 186.72 150.07 185.8 150.63 184.6L156.342 186.328C155.35 188.664 153.814 190.48 151.734 191.776C149.67 193.072 147.39 193.72 144.894 193.72ZM135.966 181.648V177.28H153.798V181.648H135.966ZM177.177 193C175.465 193.32 173.785 193.456 172.137 193.408C170.505 193.376 169.041 193.08 167.745 192.52C166.449 191.944 165.465 191.04 164.793 189.808C164.201 188.688 163.889 187.544 163.857 186.376C163.825 185.208 163.809 183.888 163.809 182.416V159.88H169.569V182.08C169.569 183.12 169.577 184.032 169.593 184.816C169.625 185.6 169.793 186.24 170.097 186.736C170.673 187.696 171.593 188.232 172.857 188.344C174.121 188.456 175.561 188.392 177.177 188.152V193ZM159.105 171.616V167.08H177.177V171.616H159.105ZM192.36 193V158.44H198.216L214.248 182.8V158.44H220.104V193H214.248L198.216 168.64V193H192.36ZM234.061 193.72C232.189 193.72 230.605 193.368 229.309 192.664C228.013 191.944 227.029 190.992 226.357 189.808C225.701 188.624 225.373 187.32 225.373 185.896C225.373 184.648 225.581 183.528 225.997 182.536C226.413 181.528 227.053 180.664 227.917 179.944C228.781 179.208 229.901 178.608 231.277 178.144C232.317 177.808 233.533 177.504 234.925 177.232C236.333 176.96 237.853 176.712 239.485 176.488C241.133 176.248 242.853 175.992 244.645 175.72L242.581 176.896C242.597 175.104 242.197 173.784 241.381 172.936C240.565 172.088 239.189 171.664 237.253 171.664C236.085 171.664 234.957 171.936 233.869 172.48C232.781 173.024 232.021 173.96 231.589 175.288L226.309 173.632C226.949 171.44 228.165 169.68 229.957 168.352C231.765 167.024 234.197 166.36 237.253 166.36C239.557 166.36 241.581 166.736 243.325 167.488C245.085 168.24 246.389 169.472 247.237 171.184C247.701 172.096 247.981 173.032 248.077 173.992C248.173 174.936 248.221 175.968 248.221 177.088V193H243.157V187.384L243.997 188.296C242.829 190.168 241.461 191.544 239.893 192.424C238.341 193.288 236.397 193.72 234.061 193.72ZM235.213 189.112C236.525 189.112 237.645 188.88 238.573 188.416C239.501 187.952 240.237 187.384 240.781 186.712C241.341 186.04 241.717 185.408 241.909 184.816C242.213 184.08 242.381 183.24 242.413 182.296C242.461 181.336 242.485 180.56 242.485 179.968L244.261 180.496C242.517 180.768 241.021 181.008 239.773 181.216C238.525 181.424 237.453 181.624 236.557 181.816C235.661 181.992 234.869 182.192 234.181 182.416C233.509 182.656 232.941 182.936 232.477 183.256C232.013 183.576 231.653 183.944 231.397 184.36C231.157 184.776 231.037 185.264 231.037 185.824C231.037 186.464 231.197 187.032 231.517 187.528C231.837 188.008 232.301 188.392 232.909 188.68C233.533 188.968 234.301 189.112 235.213 189.112ZM285.597 193V177.256C285.597 175.48 285.157 174.096 284.277 173.104C283.397 172.096 282.205 171.592 280.701 171.592C279.773 171.592 278.941 171.808 278.205 172.24C277.469 172.656 276.885 173.28 276.453 174.112C276.021 174.928 275.805 175.904 275.805 177.04L273.237 175.528C273.221 173.736 273.621 172.16 274.437 170.8C275.269 169.424 276.389 168.352 277.797 167.584C279.205 166.816 280.773 166.432 282.501 166.432C285.365 166.432 287.557 167.296 289.077 169.024C290.613 170.736 291.381 172.992 291.381 175.792V193H285.597ZM254.421 193V167.08H259.533V175.12H260.253V193H254.421ZM270.045 193V177.328C270.045 175.52 269.605 174.112 268.725 173.104C267.845 172.096 266.645 171.592 265.125 171.592C263.653 171.592 262.469 172.096 261.573 173.104C260.693 174.112 260.253 175.424 260.253 177.04L257.661 175.312C257.661 173.632 258.077 172.12 258.909 170.776C259.741 169.432 260.861 168.376 262.269 167.608C263.693 166.824 265.285 166.432 267.045 166.432C268.981 166.432 270.597 166.848 271.893 167.68C273.205 168.496 274.181 169.616 274.821 171.04C275.477 172.448 275.805 174.04 275.805 175.816V193H270.045Z" fill="#1E2A39"/>
<path d="M42.9991 124.237C41.3798 124.617 39.7858 124.811 38.2171 124.82C36.6484 124.829 35.2382 124.576 33.9867 124.061C32.7351 123.546 31.7757 122.701 31.1085 121.524C30.5098 120.473 30.1665 119.397 30.0783 118.295C30.0056 117.177 29.9436 115.915 29.8924 114.508L29.0585 91.6029L34.0952 91.4196L34.9203 114.085C34.9582 115.124 34.9991 116.027 35.043 116.794C35.1029 117.56 35.2944 118.202 35.6174 118.718C36.2291 119.689 37.1611 120.223 38.4136 120.322C39.6814 120.404 41.1584 120.294 42.8445 119.992L42.9991 124.237ZM24.5025 103.008L24.3558 98.9789L42.056 98.3345L42.2027 102.364L24.5025 103.008ZM66.6403 123.377L66.1766 110.641C66.1399 109.634 66.0145 108.606 65.8002 107.557C65.6013 106.491 65.2454 105.512 64.7325 104.618C64.2356 103.723 63.5453 103.012 62.6615 102.484C61.7937 101.955 60.6722 101.715 59.2972 101.766C58.4017 101.798 57.5598 101.981 56.7714 102.314C55.9824 102.631 55.2961 103.128 54.7123 103.806C54.1446 104.483 53.7043 105.363 53.3916 106.447C53.0948 107.531 52.9744 108.84 53.0302 110.375L49.8695 109.314C49.784 106.963 50.1483 104.876 50.9625 103.054C51.7761 101.215 52.9881 99.7617 54.5983 98.6944C56.2085 97.6271 58.1809 97.051 60.5153 96.966C62.3062 96.9008 63.8196 97.1339 65.0558 97.6653C66.2919 98.1967 67.3029 98.9204 68.0888 99.8364C68.89 100.736 69.5106 101.73 69.9505 102.819C70.3904 103.907 70.7015 104.977 70.8839 106.027C71.0662 107.077 71.1719 108.002 71.201 108.801L71.7249 123.192L66.6403 123.377ZM48.4363 124.039L47.179 89.5023L51.664 89.339L52.3425 107.975L52.9421 107.953L53.521 123.854L48.4363 124.039ZM79.7434 93.1199L85.6693 85.6994L89.9865 85.5422L96.4603 92.5113L91.6635 92.6859L87.9353 88.5709L84.5402 92.9453L79.7434 93.1199ZM89.2468 123.274C86.6565 123.368 84.3887 122.867 82.4435 121.769C80.4983 120.671 78.9687 119.117 77.8549 117.108C76.7565 115.083 76.1584 112.727 76.0606 110.041C75.9622 107.339 76.4034 104.945 77.3842 102.86C78.3644 100.759 79.7852 99.1063 81.6466 97.9018C83.5075 96.6813 85.709 96.0248 88.2513 95.9322C90.8416 95.8379 93.1094 96.3398 95.0546 97.4377C96.9999 98.5357 98.5294 100.089 99.6432 102.098C100.757 104.107 101.363 106.446 101.46 109.116C101.558 111.819 101.117 114.22 100.137 116.321C99.1722 118.406 97.7597 120.066 95.8994 121.303C94.0386 122.523 91.8211 123.18 89.2468 123.274ZM89.0747 118.549C91.5531 118.459 93.3696 117.56 94.5243 115.853C95.6943 114.129 96.2313 111.949 96.1353 109.31C96.0369 106.608 95.3347 104.472 94.0288 102.903C92.7382 101.317 90.8697 100.568 88.4234 100.657C86.7445 100.718 85.3754 101.152 84.316 101.959C83.2561 102.75 82.4868 103.827 82.008 105.19C81.5287 106.536 81.321 108.088 81.3851 109.847C81.484 112.565 82.1868 114.717 83.4933 116.303C84.7999 117.888 86.6603 118.637 89.0747 118.549ZM125.383 121.238L124.919 108.503C124.882 107.495 124.757 106.467 124.542 105.418C124.344 104.353 123.988 103.373 123.475 102.479C122.978 101.585 122.288 100.873 121.404 100.345C120.536 99.8162 119.415 99.5769 118.039 99.6269C117.144 99.6595 116.302 99.8423 115.514 100.175C114.725 100.492 114.038 100.989 113.455 101.667C112.887 102.344 112.447 103.225 112.134 104.309C111.837 105.392 111.717 106.702 111.773 108.237L108.612 107.175C108.526 104.824 108.891 102.738 109.705 100.915C110.518 99.0762 111.73 97.6231 113.341 96.5558C114.951 95.4886 116.923 94.9124 119.258 94.8274C121.048 94.7622 122.562 94.9953 123.798 95.5267C125.034 96.0581 126.045 96.7818 126.831 97.6978C127.632 98.5972 128.253 99.5913 128.693 100.68C129.133 101.769 129.444 102.838 129.626 103.888C129.809 104.938 129.914 105.863 129.943 106.662L130.467 121.053L125.383 121.238ZM107.179 121.901L106.236 95.998L110.721 95.8347L110.993 103.318L111.593 103.296L112.263 121.716L107.179 121.901ZM147.833 132.669C146.442 132.72 145.083 132.553 143.756 132.169C142.445 131.784 141.238 131.188 140.136 130.379C139.035 129.587 138.11 128.588 137.361 127.382L141.905 124.863C142.504 125.946 143.333 126.725 144.391 127.198C145.449 127.672 146.554 127.888 147.705 127.846C149.128 127.795 150.334 127.494 151.323 126.946C152.312 126.414 153.044 125.635 153.519 124.609C154.01 123.582 154.221 122.326 154.15 120.839L153.887 113.596L154.486 113.574L153.783 94.2669L158.22 94.1054L159.189 120.704C159.214 121.391 159.214 122.048 159.188 122.673C159.163 123.298 159.098 123.925 158.993 124.553C158.688 126.31 158.037 127.774 157.039 128.947C156.057 130.12 154.777 131.015 153.198 131.633C151.636 132.25 149.847 132.596 147.833 132.669ZM147.03 121.17C144.615 121.258 142.507 120.735 140.704 119.6C138.918 118.464 137.507 116.882 136.473 114.854C135.454 112.81 134.897 110.493 134.803 107.903C134.708 105.296 135.103 102.952 135.988 100.871C136.872 98.7732 138.172 97.1008 139.888 95.8535C141.619 94.5897 143.7 93.9136 146.13 93.8251C148.577 93.736 150.653 94.2608 152.36 95.3995C154.082 96.5216 155.404 98.0985 156.326 100.13C157.265 102.161 157.781 104.472 157.876 107.063C157.97 109.653 157.623 111.995 156.835 114.089C156.046 116.183 154.835 117.868 153.2 119.145C151.565 120.405 149.508 121.08 147.03 121.17ZM147.56 116.612C149.207 116.552 150.536 116.112 151.547 115.29C152.558 114.469 153.278 113.362 153.707 111.969C154.137 110.577 154.319 108.985 154.254 107.194C154.189 105.404 153.883 103.83 153.338 102.473C152.808 101.115 152.017 100.071 150.966 99.3408C149.931 98.61 148.63 98.2731 147.063 98.3301C145.4 98.3907 144.048 98.8482 143.006 99.7026C141.964 100.557 141.205 101.681 140.727 103.076C140.266 104.469 140.066 106.014 140.127 107.709C140.19 109.42 140.502 110.961 141.064 112.334C141.642 113.69 142.465 114.756 143.534 115.534C144.619 116.311 145.961 116.67 147.56 116.612ZM206.537 118.284L205.973 102.141C205.905 100.271 205.372 98.8331 204.375 97.8287C203.377 96.8083 202.095 96.3266 200.528 96.3837C199.568 96.4186 198.697 96.6745 197.914 97.1513C197.146 97.6115 196.531 98.2904 196.067 99.1878C195.619 100.069 195.418 101.165 195.466 102.476L192.999 101.341C192.901 99.5192 193.226 97.9063 193.976 96.5021C194.741 95.0974 195.806 93.9939 197.17 93.1917C198.533 92.3736 200.078 91.9331 201.804 91.8702C204.603 91.7684 206.8 92.5289 208.396 94.1519C209.992 95.775 210.841 97.9775 210.942 100.76L211.549 118.101L206.537 118.284ZM175.477 119.414L174.534 93.5115L178.995 93.3491L179.268 100.832L179.843 100.811L180.514 119.231L175.477 119.414ZM191.019 118.849L190.459 102.802C190.39 100.916 189.856 99.454 188.858 98.4176C187.876 97.3806 186.585 96.8913 184.986 96.9495C183.403 97.0071 182.144 97.5973 181.208 98.7201C180.288 99.8423 179.86 101.283 179.924 103.042L177.47 101.594C177.408 99.8991 177.761 98.3733 178.528 97.0165C179.295 95.6597 180.361 94.5722 181.724 93.7541C183.087 92.9359 184.648 92.4949 186.407 92.4308C188.245 92.3639 189.827 92.6986 191.15 93.4349C192.473 94.1552 193.496 95.1987 194.218 96.5654C194.956 97.9314 195.359 99.5338 195.426 101.373L196.032 118.666L191.019 118.849ZM217.183 87.708L217.006 82.8392L222.019 82.6567L222.196 87.5255L217.183 87.708ZM218.281 117.856L217.338 91.9532L222.351 91.7707L223.294 117.674L218.281 117.856ZM248.676 116.749L248.212 104.014C248.176 103.007 248.05 101.978 247.836 100.93C247.637 99.8641 247.281 98.8844 246.768 97.9904C246.271 97.0959 245.581 96.3846 244.697 95.8564C243.829 95.3276 242.708 95.0882 241.333 95.1383C240.437 95.1709 239.595 95.3536 238.807 95.6865C238.018 96.0035 237.332 96.5008 236.748 97.1784C236.18 97.8555 235.74 98.7361 235.427 99.8202C235.13 100.904 235.01 102.213 235.066 103.748L231.905 102.686C231.82 100.336 232.184 98.2492 232.998 96.4264C233.812 94.5875 235.024 93.1345 236.634 92.0672C238.244 90.9999 240.217 90.4238 242.551 90.3388C244.342 90.2736 245.855 90.5067 247.091 91.0381C248.328 91.5694 249.339 92.2931 250.124 93.2091C250.926 94.1086 251.546 95.1027 251.986 96.1914C252.426 97.2801 252.737 98.3495 252.92 99.3996C253.102 100.45 253.208 101.374 253.237 102.174L253.761 116.564L248.676 116.749ZM230.472 117.412L229.529 91.5093L234.014 91.346L234.286 98.8291L234.886 98.8073L235.557 117.227L230.472 117.412ZM278.188 115.675L277.724 102.939C277.687 101.932 277.562 100.904 277.348 99.8551C277.149 98.7896 276.793 97.8099 276.28 96.916C275.783 96.0215 275.093 95.3101 274.209 94.7819C273.341 94.2532 272.22 94.0138 270.845 94.0639C269.949 94.0965 269.107 94.2792 268.319 94.6121C267.53 94.929 266.843 95.4263 266.26 96.104C265.692 96.7811 265.252 97.6617 264.939 98.7458C264.642 99.8293 264.522 101.139 264.578 102.674L261.417 101.612C261.331 99.2614 261.696 97.1748 262.51 95.352C263.323 93.5131 264.535 92.0601 266.146 90.9928C267.756 89.9255 269.728 89.3494 272.063 89.2644C273.854 89.1992 275.367 89.4323 276.603 89.9636C277.839 90.495 278.85 91.2187 279.636 92.1347C280.437 93.0342 281.058 94.0283 281.498 95.117C281.938 96.2057 282.249 97.2751 282.431 98.3251C282.614 99.3752 282.719 100.3 282.748 101.099L283.272 115.49L278.188 115.675ZM259.984 116.338L258.726 81.8006L263.211 81.6374L263.89 100.273L264.489 100.251L265.068 116.153L259.984 116.338Z" fill="url(#paint0_linear_446_5)"/>
<rect x="7.65656" y="74.7504" width="293.271" height="71.71" transform="rotate(-2.10435 7.65656 74.7504)" stroke="#FFA654" stroke-width="4"/>
<circle cx="303" cy="61" r="4" fill="#FFA654"/>
<circle cx="306" cy="138" r="4" fill="#FFA654"/>
<circle cx="7" cy="150" r="4" fill="#FFA654"/>
<circle cx="4" cy="72" r="4" fill="#FFA654"/>
<defs>
<linearGradient id="paint0_linear_446_5" x1="35.9309" y1="104.148" x2="279.095" y2="127.887" gradientUnits="userSpaceOnUse">
<stop stop-color="#00ED5F"/>
<stop offset="0.42615" stop-color="#FFBB37"/>
<stop offset="1" stop-color="#FFA654"/>
</linearGradient>
</defs>
</svg>
