<svg width="32" height="32" viewBox="0 0 32 32" fill="none" xmlns="http://www.w3.org/2000/svg">
    <circle cx="16" cy="16" r="16" fill="#FC6E20"/>
    <path d="M15.9994 17.9868C17.1046 17.9868 18.0005 17.0923 18.0005 15.989C18.0005 14.8856 17.1046 13.9912 15.9994 13.9912C14.8942 13.9912 13.9983 14.8856 13.9983 15.989C13.9983 17.0923 14.8942 17.9868 15.9994 17.9868Z" fill="white"/>
    <path d="M21.9614 13.5419C21.9546 13.038 21.8602 12.5392 21.6821 12.0676C21.5278 11.6699 21.292 11.3087 20.9899 11.0071C20.6878 10.7055 20.326 10.4701 19.9276 10.316C19.4614 10.1413 18.9688 10.0468 18.4709 10.0366C17.8299 10.008 17.6266 10 15.9993 10C14.3721 10 14.1635 10 13.5271 10.0366C13.0294 10.0469 12.5371 10.1413 12.0711 10.316C11.6726 10.47 11.3108 10.7053 11.0086 11.007C10.7065 11.3086 10.4708 11.6698 10.3165 12.0676C10.1412 12.5327 10.0467 13.0244 10.0373 13.5212C10.0087 14.1619 10 14.3648 10 15.9894C10 17.6139 10 17.8215 10.0373 18.4575C10.0473 18.9551 10.1413 19.4461 10.3165 19.9124C10.471 20.3101 10.7069 20.6712 11.0092 20.9727C11.3114 21.2742 11.6733 21.5094 12.0717 21.6634C12.5365 21.8451 13.0289 21.9464 13.5278 21.9627C14.1695 21.9914 14.3727 22 16 22C17.6273 22 17.8359 22 18.4722 21.9627C18.9701 21.953 19.4627 21.8587 19.9289 21.684C20.3272 21.5297 20.6889 21.2943 20.991 20.9927C21.2931 20.6911 21.5289 20.33 21.6835 19.9324C21.8587 19.4667 21.9527 18.9757 21.9627 18.4774C21.9913 17.8375 22 17.6346 22 16.0093C21.9987 14.3847 21.9987 14.1785 21.9614 13.5419ZM15.9953 19.0615C14.2934 19.0615 12.9147 17.6851 12.9147 15.986C12.9147 14.287 14.2934 12.9105 15.9953 12.9105C16.8124 12.9105 17.5959 13.2345 18.1737 13.8113C18.7514 14.3881 19.076 15.1704 19.076 15.986C19.076 16.8017 18.7514 17.584 18.1737 18.1607C17.5959 18.7375 16.8124 19.0615 15.9953 19.0615ZM19.1986 13.5139C19.1042 13.514 19.0108 13.4955 18.9236 13.4595C18.8364 13.4235 18.7572 13.3707 18.6904 13.3041C18.6237 13.2375 18.5708 13.1584 18.5347 13.0713C18.4987 12.9843 18.4801 12.891 18.4802 12.7968C18.4802 12.7026 18.4988 12.6094 18.5349 12.5224C18.571 12.4355 18.6239 12.3565 18.6905 12.2899C18.7572 12.2233 18.8364 12.1705 18.9235 12.1345C19.0106 12.0985 19.104 12.0799 19.1982 12.0799C19.2925 12.0799 19.3859 12.0985 19.473 12.1345C19.5601 12.1705 19.6393 12.2233 19.706 12.2899C19.7726 12.3565 19.8255 12.4355 19.8616 12.5224C19.8977 12.6094 19.9163 12.7026 19.9163 12.7968C19.9163 13.1933 19.5951 13.5139 19.1986 13.5139Z" fill="white"/>
</svg>