<svg width="131" height="40" viewBox="0 0 131 40" fill="none" xmlns="http://www.w3.org/2000/svg">
<path d="M46.5413 12.699C44.307 12.699 42.441 13.3592 40.9707 14.6669V13.2546V13.1296H40.8457H35.7979H35.6729V13.2546V32.4762V32.6012H35.7979H40.8499H40.9749V32.4762V21.9006C40.9749 20.6494 41.3535 19.6856 42.1197 18.9383L42.1197 18.9383C42.8901 18.187 43.8969 17.8144 45.2083 17.8144C46.444 17.8144 47.3827 18.1701 48.0899 18.8947L48.0901 18.895C48.802 19.6204 49.1533 20.576 49.1533 21.8344V32.4803V32.6053H49.2783H54.3303H54.4553V32.4803V20.5134C54.4553 18.1913 53.7226 16.2816 52.2702 14.8509L52.2701 14.8508C50.814 13.4205 48.8836 12.699 46.5413 12.699Z" fill="#1E2A39" stroke="#1E2A39" stroke-width="0.25"/>
<path d="M62.1152 4.98471C61.2278 4.98471 60.4649 5.28607 59.8554 5.87697C59.2357 6.47385 58.9272 7.24017 58.9272 8.14905C58.9272 9.02992 59.2363 9.7912 59.8503 10.3954C60.4635 11.0029 61.2266 11.3134 62.1152 11.3134C63.0274 11.3134 63.8036 11.008 64.4179 10.3993C65.0315 9.7913 65.3408 9.03438 65.3408 8.15319C65.3408 7.24806 65.0279 6.47785 64.4128 5.88126C63.7985 5.28555 63.0228 4.98471 62.1152 4.98471Z" fill="#1E2A39" stroke="#1E2A39" stroke-width="0.25"/>
<path d="M64.7684 13.2546V13.1296H64.6434H59.5913H59.4663V13.2546V32.4762V32.6012H59.5913H64.6434H64.7684V32.4762V13.2546Z" fill="#1E2A39" stroke="#1E2A39" stroke-width="0.25"/>
<path d="M77.7432 7.7764V7.62208L77.5922 7.65412L72.5402 8.72659L72.4411 8.74761V8.84886V13.1297H68.8555H68.7305V13.2547V17.9006V18.0256H68.8555H72.4411V32.4762V32.6012H72.5661H77.6182H77.7432V32.4762V18.0256H81.5462H81.6712V17.9006V13.2547V13.1297H81.5462H77.7432V7.7764Z" fill="#1E2A39" stroke="#1E2A39" stroke-width="0.25"/>
<path d="M93.1922 33.0235C95.4877 33.0235 97.4404 32.2781 99.0134 30.8044V32.472V32.597H99.1384H104.19H104.315V32.472V13.2546V13.1296H104.19H99.1384H99.0134V13.2546V14.922C97.4397 13.4457 95.4856 12.699 93.188 12.699C90.4262 12.699 88.0905 13.6853 86.2566 15.6285L86.2565 15.6285C84.4318 17.5626 83.5105 19.9999 83.5105 22.8613C83.5105 25.7225 84.4317 28.1599 86.2606 30.094C88.0947 32.0415 90.4305 33.0235 93.1922 33.0235ZM97.5706 19.2518L97.5708 19.252C98.5401 20.2205 99.0092 21.4012 99.0092 22.8654C99.0092 24.3294 98.5361 25.5102 97.5706 26.479C96.6053 27.4477 95.4345 27.9164 93.9819 27.9164C92.5041 27.9164 91.3247 27.4434 90.3552 26.4787C89.3861 25.5101 88.917 24.3296 88.917 22.8654C88.917 21.4016 89.39 20.2248 90.3557 19.2517C91.3208 18.2833 92.504 17.8103 93.9819 17.8103C95.4342 17.8103 96.6051 18.2829 97.5706 19.2518Z" fill="#1E2A39" stroke="#1E2A39" stroke-width="0.25"/>
<path d="M127.715 15.6283L127.715 15.6282C125.869 13.6856 123.542 12.699 120.805 12.699C118.494 12.699 116.525 13.4442 114.95 14.9182V13.2505V13.1255H114.825H109.773H109.648V13.2505V39.2588V39.3838H109.773H114.825H114.95V39.2588V30.8085C116.528 32.2864 118.493 33.0318 120.805 33.0318C123.542 33.0318 125.869 32.0453 127.715 30.1027L127.715 30.1027C129.553 28.1686 130.482 25.7312 130.482 22.8654C130.482 19.9996 129.553 17.5664 127.715 15.6283ZM123.6 19.2518L123.6 19.252C124.569 20.2205 125.038 21.4012 125.038 22.8654C125.038 24.3294 124.565 25.5103 123.6 26.479C122.634 27.4477 121.464 27.9164 120.011 27.9164C118.559 27.9164 117.379 27.4437 116.401 26.4744C115.423 25.5055 114.946 24.329 114.946 22.8654C114.946 21.4019 115.423 20.2253 116.401 19.2522C117.379 18.283 118.559 17.8103 120.011 17.8103C121.463 17.8103 122.634 18.2829 123.6 19.2518Z" fill="#1E2A39" stroke="#1E2A39" stroke-width="0.25"/>
<path d="M25.1255 6.69901H25.0005V6.82401V22.4016C25.0005 23.9361 24.5064 25.1662 23.4914 26.1721C22.4763 27.178 21.2343 27.668 19.6848 27.668C18.1572 27.668 16.9233 27.1745 15.895 26.1555C14.8667 25.1366 14.3692 23.9144 14.3692 22.4016V15.8882V15.6766L14.1838 15.7787C13.4204 16.1994 12.5469 16.4381 11.6116 16.4381C10.6767 16.4381 9.80289 16.1955 9.03889 15.7785L8.854 15.6776V15.8882V22.472C8.854 25.4649 9.89868 28.0029 11.9632 30.0109L12.0503 29.9213L11.9632 30.0109C14.0232 32.0145 16.6251 33.0318 19.689 33.0318C22.7733 33.0318 25.3879 32.019 27.4482 30.0109C29.5127 28.0029 30.5574 25.4649 30.5574 22.472V6.82401V6.69901H30.4324H25.1255Z" fill="#1E2A39" stroke="#1E2A39" stroke-width="0.25"/>
<path d="M11.6116 5.93038H11.7366V5.80538V0.55072V0.42572H11.6116C5.61827 0.42572 0.755737 5.24252 0.755737 11.1843V11.3093H0.880737H6.1835H6.3085V11.1843C6.3085 8.28536 8.67934 5.93038 11.6116 5.93038Z" fill="#FFA654" stroke="#FFA654" stroke-width="0.25"/>
<path d="M11.6116 13.9179C13.1335 13.9179 14.3692 12.6951 14.3692 11.1843C14.3692 9.6734 13.1335 8.45056 11.6116 8.45056C10.0897 8.45056 8.854 9.6734 8.854 11.1843C8.854 12.6951 10.0897 13.9179 11.6116 13.9179Z" fill="#FFA654" stroke="#FFA654" stroke-width="0.25"/>
</svg>
