 <svg width="132" height="41" viewBox="0 0 132 41" fill="none" xmlns="http://www.w3.org/2000/svg">
    <path d="M46.9047 13.0493C44.6536 13.0493 42.7739 13.7237 41.2932 15.0589V13.6139V13.4889H41.1682H36.084H35.959V13.6139V33.2359V33.3609H36.084H41.1724H41.2974V33.2359V22.44C41.2974 21.1616 41.6791 20.1769 42.4513 19.4136L42.4513 19.4136C43.2275 18.6463 44.2416 18.2661 45.5621 18.2661C46.8064 18.2661 47.7519 18.629 48.4645 19.3691L48.4647 19.3694C49.1823 20.1104 49.5364 21.0868 49.5364 22.3724V33.2401V33.3651H49.6614H54.7498H54.8748V33.2401V21.024C54.8748 18.6545 54.1372 16.706 52.6748 15.2459L52.6747 15.2458C51.2084 13.786 49.2641 13.0493 46.9047 13.0493Z" fill="white" stroke="white" stroke-width="0.25"/>
    <path d="M62.5909 5.17432C61.6968 5.17432 60.9284 5.48208 60.3149 6.08502C59.6911 6.69394 59.3809 7.47534 59.3809 8.40197C59.3809 9.29998 59.6917 10.0763 60.3097 10.6926C60.927 11.3126 61.6956 11.6296 62.5909 11.6296C63.51 11.6296 64.2917 11.3178 64.9101 10.6967C65.5277 10.0764 65.8388 9.30454 65.8388 8.4062C65.8388 7.4834 65.5241 6.69802 64.9049 6.0894C64.2866 5.48156 63.5052 5.17432 62.5909 5.17432Z" fill="white" stroke="white" stroke-width="0.25"/>
    <path d="M65.2622 13.6143V13.4893H65.1372H60.0488H59.9238V13.6143V33.2362V33.3612H60.0488H65.1372H65.2622V33.2362V13.6143Z" fill="white" stroke="white" stroke-width="0.25"/>
    <path d="M78.3304 8.02148V7.86673L78.1791 7.89928L73.0907 8.99409L72.992 9.01532V9.11629V13.4889H69.3796H69.2546V13.6139V18.3566V18.4816H69.3796H72.992V33.2358V33.3608H73.117H78.2054H78.3304V33.2358V18.4816H82.1617H82.2867V18.3566V13.6139V13.4889H82.1617H78.3304V8.02148Z" fill="white" stroke="white" stroke-width="0.25"/>
    <path d="M86.9101 30.8018C88.757 32.7894 91.1095 33.7921 93.8913 33.7921C96.2041 33.7921 98.1712 33.0307 99.7553 31.526V33.2317V33.3567H99.8803H104.969H105.094V33.2317V13.6139V13.4889H104.969H99.8803H99.7553V13.6139V15.3194C98.1704 13.812 96.2019 13.0493 93.8871 13.0493C91.1051 13.0493 88.7526 14.0563 86.9059 16.0396L86.9059 16.0396C85.0684 18.0136 84.1409 20.5009 84.1409 23.4207C84.1409 26.3405 85.0683 28.8278 86.9101 30.8018ZM86.9101 30.8018C86.9101 30.8018 86.91 30.8017 86.91 30.8017L87.0016 30.7166L86.9102 30.8019C86.9101 30.8019 86.9101 30.8018 86.9101 30.8018ZM98.3013 19.7336L98.3015 19.7338C99.2782 20.7229 99.7511 21.929 99.7511 23.4249C99.7511 24.9206 99.2741 26.1269 98.3013 27.1163C97.3288 28.1054 96.1494 28.5837 94.6867 28.5837C93.1986 28.5837 92.0107 28.101 91.0339 27.1159C90.0574 26.1268 89.5845 24.9207 89.5845 23.4249C89.5845 21.9294 90.0614 20.7272 91.0344 19.7334C92.0067 18.7446 93.1985 18.2619 94.6867 18.2619C96.1491 18.2619 97.3286 18.7442 98.3013 19.7336Z" fill="white" stroke="white" stroke-width="0.25"/>
    <path d="M128.663 16.0394L128.663 16.0393C126.804 14.0566 124.46 13.0493 121.703 13.0493C119.374 13.0493 117.391 13.8105 115.805 15.3155V13.6097V13.4847H115.68H110.592H110.467V13.6097V40.1598V40.2848H110.592H115.68H115.805V40.1598V31.5302C117.394 33.0392 119.374 33.8005 121.703 33.8005C124.46 33.8005 126.804 32.7933 128.663 30.8105L128.663 30.8105C130.513 28.8366 131.449 26.3493 131.449 23.4249C131.449 20.5005 130.513 18.0174 128.663 16.0394ZM124.518 19.7336L124.518 19.7338C125.495 20.7229 125.968 21.929 125.968 23.4249C125.968 24.9206 125.491 26.1269 124.518 27.1163C123.545 28.1054 122.366 28.5837 120.903 28.5837C119.441 28.5837 118.253 28.1013 117.267 27.1115C116.282 26.122 115.801 24.9201 115.801 23.4249C115.801 21.9298 116.282 20.7278 117.267 19.7339C118.253 18.7443 119.441 18.2619 120.903 18.2619C122.366 18.2619 123.545 18.7442 124.518 19.7336Z" fill="white" stroke="white" stroke-width="0.25"/>
    <path d="M25.3349 6.92432H25.2099V7.04932V22.9515C25.2099 24.5191 24.7118 25.7757 23.6891 26.8029C22.6664 27.8301 21.4154 28.3301 19.8551 28.3301C18.3168 28.3301 17.0739 27.8265 16.038 26.786C15.0019 25.7455 14.5003 24.497 14.5003 22.9515V16.3023V16.0893L14.3143 16.1932C13.5454 16.6227 12.6656 16.8663 11.7238 16.8663C10.7823 16.8663 9.90232 16.6187 9.13277 16.193L8.94727 16.0903V16.3023V23.0234C8.94727 26.0773 9.99897 28.6673 12.0779 30.7168C14.1525 32.7619 16.7731 33.8005 19.8593 33.8005C22.9661 33.8005 25.5995 32.7664 27.6743 30.7168C29.7533 28.6673 30.805 26.0773 30.805 23.0234V7.04932V6.92432H30.68H25.3349Z" fill="white" stroke="white" stroke-width="0.25"/>
    <path d="M11.7239 6.13464H11.8489V6.00964V0.645508V0.520508H11.7239C5.68629 0.520508 0.790771 5.43809 0.790771 11.5006V11.6256H0.915771H6.25668H6.38168V11.5006C6.38168 8.53824 8.77157 6.13464 11.7239 6.13464Z" fill="#FC6E20" stroke="#FC6E20" stroke-width="0.25"/>
    <path d="M11.7238 14.2885C13.2577 14.2885 14.5003 13.0397 14.5003 11.5004C14.5003 9.96116 13.2577 8.7124 11.7238 8.7124C10.1898 8.7124 8.94727 9.96116 8.94727 11.5004C8.94727 13.0397 10.1898 14.2885 11.7238 14.2885Z" fill="#FC6E20" stroke="#FC6E20" stroke-width="0.25"/>
</svg>