<svg width="44" height="40" viewBox="0 0 44 40" fill="none" xmlns="http://www.w3.org/2000/svg">
<path d="M19.7447 1.05298C20.9421 0.396995 22.3913 0.396996 23.5886 1.05299L30.9833 5.10436L38.2391 8.86436C39.5825 9.56052 40.4181 10.9551 40.3983 12.468L40.3 20L40.3983 27.532C40.4181 29.0449 39.5825 30.4395 38.2391 31.1356L30.9833 34.8956L23.5886 38.947C22.3913 39.603 20.9421 39.603 19.7447 38.947L12.35 34.8956L5.09426 31.1356C3.75086 30.4395 2.91525 29.0449 2.935 27.532L3.03333 20L2.935 12.468C2.91525 10.9551 3.75086 9.56052 5.09426 8.86436L12.35 5.10436L19.7447 1.05298Z" fill="#FC6F20"/>
<path d="M21.51 27V16.407L19.08 17.892V15.498L21.51 14.04H23.724V27H21.51Z" fill="white"/>
</svg>