 <svg width="32" height="32" viewBox="0 0 32 32" fill="none" xmlns="http://www.w3.org/2000/svg">
    <circle cx="16" cy="16" r="16" fill="#FC6E20"/>
    <path d="M23.5437 11.4291C22.9983 11.672 22.4206 11.8325 21.8292 11.9053C22.4526 11.5261 22.9193 10.931 23.1429 10.23C22.5533 10.5765 21.9115 10.8226 21.2432 10.9585C20.7938 10.4719 20.1984 10.1493 19.5495 10.0406C18.9007 9.93184 18.2345 10.0431 17.6544 10.3572C17.0744 10.6713 16.6128 11.1706 16.3414 11.7776C16.0699 12.3846 16.0038 13.0654 16.1532 13.7144C13.6701 13.5967 11.4689 12.3879 9.99678 10.5617C9.72879 11.0235 9.58863 11.55 9.59105 12.0857C9.59069 12.5837 9.7117 13.0741 9.94334 13.5133C10.175 13.9525 10.5101 14.327 10.9189 14.6035C10.4451 14.589 9.98171 14.4597 9.56738 14.2265V14.263C9.56723 14.962 9.80562 15.6395 10.2421 16.1808C10.6787 16.7221 11.2865 17.0938 11.9626 17.2329C11.7065 17.3023 11.4426 17.3378 11.1775 17.3386C10.9858 17.3386 10.8028 17.3197 10.6202 17.2855C10.8126 17.887 11.1853 18.4128 11.6864 18.7897C12.1875 19.1665 12.7921 19.3757 13.4161 19.3881C12.3589 20.2269 11.0545 20.682 9.71172 20.6804C9.47389 20.6814 9.23622 20.6678 9 20.6398C10.3698 21.5291 11.9627 22.0012 13.5895 22C19.0843 22 22.087 17.3884 22.087 13.3946C22.087 13.2673 22.087 13.1376 22.0774 13.0075C22.6648 12.581 23.1709 12.0501 23.5714 11.4406L23.5437 11.4291Z" fill="white"/>                           
</svg>